<?xml version="1.0" standalone="no"?>
<!DOCTYPE svg PUBLIC "-//W3C//DTD SVG 20010904//EN"
 "http://www.w3.org/TR/2001/REC-SVG-20010904/DTD/svg10.dtd">
<svg version="1.0" xmlns="http://www.w3.org/2000/svg"
 width="250.000000pt" height="65.0000000pt" viewBox="0 0 900.000000 216.000000"
 preserveAspectRatio="xMidYMid meet">
<metadata>
Created by potrace 1.10, written by Peter Selinger 2001-2011
</metadata>
<g transform="translate(0.000000,216.000000) scale(0.100000,-0.100000)"
fill="#fee304" stroke="none">
<path d="M190 2136 c0 -12 -12 -45 -27 -72 l-27 -49 -7 -340 c-4 -187 -8 -352
-8 -367 0 -18 -6 -28 -16 -28 -10 0 -15 -10 -15 -29 0 -17 -4 -32 -9 -35 -11
-7 -19 -55 -26 -156 -7 -105 -16 -159 -26 -166 -5 -3 -9 12 -9 33 0 21 -5 45
-10 53 -6 10 -10 -67 -10 -228 0 -160 3 -241 10 -237 5 3 10 21 10 38 0 45 20
14 20 -33 0 -19 7 -44 15 -54 8 -11 15 -37 15 -58 0 -22 5 -44 10 -51 22 -26
60 -83 69 -104 6 -13 17 -23 25 -23 8 0 19 -6 23 -13 12 -19 104 -87 118 -87
7 0 24 -11 39 -25 15 -14 37 -27 49 -29 12 -2 57 -12 100 -20 72 -15 81 -15
113 0 25 12 49 15 84 11 47 -6 49 -5 59 24 5 16 14 29 19 29 16 0 127 92 126
105 -1 7 18 27 41 46 23 18 46 43 52 54 43 85 68 126 71 116 7 -22 41 -10 69
25 25 31 32 35 49 26 11 -6 26 -22 34 -36 8 -16 19 -24 29 -21 9 2 23 0 31 -5
13 -8 12 -13 -4 -41 -18 -31 -18 -33 -1 -46 11 -7 24 -13 31 -13 18 0 44 -40
44 -67 0 -13 5 -23 12 -23 6 0 26 -18 45 -40 19 -22 54 -48 78 -59 25 -11 56
-31 69 -44 34 -34 126 -44 282 -31 64 5 72 8 87 34 9 15 28 30 41 34 13 3 48
22 77 42 30 20 68 43 86 50 31 13 63 10 63 -6 0 -5 22 -16 49 -25 27 -9 55
-23 62 -31 7 -8 27 -21 46 -29 18 -8 38 -25 44 -39 14 -31 39 -40 86 -31 31 5
38 2 68 -29 l34 -36 223 0 c185 1 220 3 206 14 -15 11 -12 15 35 35 35 15 62
21 85 17 27 -4 35 -1 43 18 7 14 43 40 94 66 47 23 99 59 120 81 20 21 39 39
44 39 4 0 13 11 19 26 7 14 28 32 47 40 22 9 35 21 35 33 0 20 99 101 123 101
8 0 20 7 27 15 12 15 55 15 92 0 9 -3 30 1 47 10 28 14 37 14 90 0 43 -11 67
-12 86 -5 42 16 105 12 165 -11 30 -11 61 -25 67 -31 14 -11 51 -87 78 -161
11 -29 24 -47 34 -47 9 0 38 -23 64 -50 27 -28 54 -50 61 -50 8 0 32 -18 56
-41 25 -24 47 -38 56 -35 9 3 32 -3 52 -13 51 -25 129 -33 137 -14 3 9 12 13
21 9 8 -3 29 1 46 10 19 10 44 14 65 11 29 -5 35 -2 48 22 8 17 25 31 42 34
31 7 62 29 133 97 25 25 60 53 76 62 16 10 37 23 46 30 15 10 20 9 32 -7 13
-18 15 -18 31 -2 9 10 26 15 38 13 12 -3 33 -7 47 -10 14 -3 34 -19 45 -36 11
-16 27 -32 36 -35 9 -3 31 -19 50 -36 45 -41 90 -69 112 -69 23 0 60 -38 51
-52 -5 -8 4 -9 30 -5 25 4 56 -1 101 -18 73 -26 126 -24 188 7 21 10 47 16 57
13 13 -4 28 2 46 21 15 14 43 33 61 41 57 23 147 -3 179 -52 9 -14 24 -25 34
-25 10 0 34 -7 53 -15 20 -8 47 -15 61 -15 13 0 26 -7 30 -15 5 -13 52 -15
342 -15 297 0 338 2 348 16 27 36 103 50 261 48 83 -1 178 -5 212 -9 47 -6 78
-3 123 9 33 10 70 14 82 11 13 -5 18 -3 14 3 -8 13 50 62 74 62 9 0 37 7 60
15 36 13 47 13 74 1 17 -7 47 -19 66 -27 47 -17 61 -28 58 -48 -3 -13 5 -15
43 -13 27 2 62 -3 84 -12 76 -32 228 -6 250 42 5 12 13 22 16 22 12 0 119 73
119 81 0 5 14 15 30 24 17 9 30 23 30 31 0 9 9 27 19 40 13 16 19 41 19 74 1
27 6 58 11 69 21 39 31 355 17 542 -3 34 -1 61 5 65 6 4 4 13 -6 24 -19 21
-36 165 -22 179 11 11 -1 34 -13 26 -13 -8 -40 36 -40 66 0 15 -13 40 -32 61
-18 19 -71 76 -117 127 -47 50 -95 94 -108 97 -13 4 -28 15 -34 25 -5 11 -15
19 -20 19 -6 0 -24 11 -41 25 -16 14 -39 25 -50 25 -12 0 -30 8 -41 18 -28 26
-280 31 -376 7 -56 -13 -79 -15 -127 -6 -31 6 -90 11 -129 11 -59 0 -81 -5
-121 -26 -131 -70 -118 -67 -181 -54 -32 7 -79 25 -105 42 -46 29 -52 30 -190
34 -162 4 -350 14 -358 19 -3 2 -21 0 -40 -4 -19 -4 -48 -3 -64 2 -22 8 -35 6
-58 -8 -20 -11 -41 -15 -63 -12 -24 4 -36 0 -48 -14 -20 -22 -65 -25 -92 -5
-15 10 -23 11 -37 2 -22 -13 -38 5 -38 45 0 46 -72 166 -171 284 -27 33 -52
70 -56 83 l-5 22 -240 0 -240 0 6 -30 c5 -25 2 -30 -14 -30 -19 0 -73 -45
-189 -160 -74 -73 -130 -108 -142 -89 -5 8 -9 17 -9 22 0 4 -11 12 -25 17 -14
5 -25 16 -25 25 0 8 -12 22 -27 32 -16 9 -39 29 -53 43 -14 15 -40 35 -58 46
-17 10 -32 24 -32 32 0 7 -18 21 -40 30 -30 13 -40 23 -40 40 l0 22 -220 0
c-185 0 -220 -2 -220 -14 0 -8 -8 -21 -18 -28 -9 -7 -23 -25 -29 -41 -16 -35
-71 -95 -94 -102 -10 -3 -21 -15 -24 -26 -4 -11 -16 -28 -27 -38 -20 -19 -39
-51 -80 -131 -18 -36 -23 -62 -23 -130 -1 -71 -5 -92 -25 -128 -32 -58 -46
-60 -262 -47 -106 7 -118 6 -118 -9 0 -9 -7 -16 -15 -16 -8 0 -15 7 -15 15 0
19 -12 19 -58 -1 -53 -23 -220 -24 -233 -2 -5 9 -29 19 -54 22 -33 5 -50 14
-64 34 -11 15 -32 34 -48 42 -15 8 -36 25 -46 37 -9 12 -27 23 -40 25 -14 2
-22 10 -22 23 0 17 -6 20 -47 18 -34 -1 -45 2 -42 12 4 9 -26 23 -93 46 -90
30 -110 33 -253 37 -162 4 -231 -5 -302 -40 -21 -10 -45 -18 -54 -18 -9 0 -23
-8 -30 -17 -14 -20 -16 -17 -29 42 -6 29 -7 29 -21 11 -16 -22 -16 -22 -38 21
-32 64 -43 67 -299 67 -128 1 -263 -1 -302 -4 -69 -5 -71 -4 -127 35 -31 22
-63 51 -72 65 -8 14 -33 45 -55 69 -22 24 -46 52 -53 63 -9 14 -28 21 -63 25
-75 7 -125 31 -125 60 l0 23 -520 0 -520 0 0 -24z m760 -27 c19 -5 55 -14 80
-19 73 -14 132 -39 187 -81 29 -21 54 -39 56 -39 3 0 22 16 43 35 26 23 47 34
63 33 37 -4 37 -27 1 -39 l-32 -11 29 -32 c16 -17 35 -43 43 -58 24 -50 179
-198 206 -198 4 0 15 -6 23 -14 9 -8 30 -16 46 -18 29 -3 30 -2 33 45 l3 47
272 -2 272 -3 0 -100 0 -100 58 -3 c52 -3 59 -1 64 17 4 16 13 21 39 21 28 0
36 5 44 26 11 27 20 28 90 9 17 -5 21 -4 12 3 -8 5 -12 18 -10 28 3 16 15 20
83 25 83 6 296 -7 305 -19 3 -4 15 -15 27 -25 17 -15 25 -16 42 -7 17 8 28 8
49 -4 15 -8 34 -17 42 -20 39 -15 126 -81 165 -125 53 -61 79 -81 104 -81 14
0 35 -10 47 -21 26 -25 1 -24 449 -11 328 10 391 20 433 67 26 31 28 74 7 135
-8 23 -15 60 -15 82 0 54 28 148 44 148 23 0 63 39 86 82 28 55 60 86 120 114
24 12 45 46 50 84 l5 35 85 -1 c99 -1 164 -27 240 -95 49 -44 78 -59 116 -59
17 0 24 -5 24 -20 0 -13 12 -25 35 -34 24 -10 35 -21 35 -36 0 -11 23 -51 50
-87 28 -36 50 -70 50 -75 0 -5 8 -8 18 -6 12 2 16 11 14 31 -3 21 1 27 16 27
11 0 26 -10 34 -21 l14 -22 39 34 c49 44 125 146 125 169 0 14 9 20 33 22 22
2 35 10 42 26 6 14 32 34 61 48 28 13 62 37 77 53 33 38 83 46 222 36 75 -5
108 -11 117 -22 7 -9 15 -43 18 -77 5 -64 7 -66 56 -51 18 6 22 2 27 -28 3
-19 26 -62 51 -95 25 -33 46 -68 46 -79 0 -10 7 -49 15 -88 24 -113 77 -136
148 -64 37 36 45 40 75 34 26 -5 39 -2 56 13 15 14 50 23 123 32 112 14 186
10 234 -16 35 -18 91 -17 262 6 89 12 137 8 137 -10 0 -10 -20 -20 -64 -35
-18 -5 -18 -7 -4 -22 22 -21 184 -36 279 -26 71 8 73 9 81 40 5 18 16 37 26
42 10 5 62 11 117 12 88 3 100 1 103 -14 2 -9 -1 -17 -7 -17 -6 0 -11 -7 -11
-15 0 -19 48 -20 75 -2 39 26 112 45 217 57 128 15 188 10 207 -19 7 -12 21
-21 31 -21 10 0 23 -7 30 -15 7 -8 18 -15 24 -15 13 0 54 -36 196 -174 116
-112 140 -143 140 -180 0 -14 6 -43 14 -63 46 -127 59 -462 27 -708 -18 -141
-31 -180 -64 -191 -9 -3 -39 -25 -65 -49 -26 -24 -68 -54 -94 -67 -35 -17 -48
-28 -48 -44 0 -28 -14 -33 -75 -23 -99 16 -186 49 -220 85 -23 24 -68 48 -107
58 -16 3 -28 13 -28 21 0 23 -21 29 -27 6 -7 -28 -40 -37 -63 -16 -17 16 -19
15 -31 -7 -12 -24 -79 -88 -91 -88 -4 0 -13 -6 -20 -12 -15 -15 -108 -48 -133
-48 -18 0 -98 24 -150 46 -67 27 -125 35 -168 22 -23 -6 -47 -16 -54 -21 -7
-5 -29 -18 -50 -30 -36 -20 -55 -21 -436 -25 -421 -4 -429 -3 -424 41 2 19 -4
23 -41 27 -31 4 -55 16 -92 48 -43 37 -54 42 -99 42 -49 0 -53 -2 -110 -60
-41 -41 -67 -60 -84 -60 -14 0 -27 -7 -31 -15 -4 -11 -21 -15 -62 -15 -129 0
-345 109 -356 180 -2 16 -17 30 -44 44 -49 25 -74 49 -74 71 0 22 -38 95 -50
95 -6 0 -10 -25 -10 -55 0 -46 -3 -56 -22 -66 -19 -10 -24 -9 -36 10 -17 25
-40 27 -68 6 -30 -23 -54 -19 -54 10 0 47 -62 17 -86 -41 -8 -19 -42 -56 -81
-87 -38 -30 -84 -72 -104 -93 -50 -55 -66 -62 -129 -57 -49 4 -58 2 -83 -21
-15 -14 -31 -26 -36 -26 -4 0 -20 13 -37 28 -16 15 -53 45 -81 67 -29 21 -53
43 -53 48 0 5 -12 7 -26 4 -30 -5 -64 22 -64 52 0 11 -20 39 -45 63 -38 37
-45 49 -45 83 -1 48 -28 112 -61 141 -13 12 -46 29 -72 39 -48 18 -50 18 -85
-1 -21 -10 -43 -27 -50 -37 -13 -17 -15 -17 -47 3 -31 19 -47 21 -228 19 -107
-1 -199 -4 -205 -8 -5 -3 -13 -16 -16 -29 -4 -12 -24 -33 -44 -46 -67 -42
-182 -168 -182 -198 0 -7 -17 -22 -37 -33 -21 -11 -54 -31 -73 -45 -19 -15
-42 -30 -50 -33 -8 -4 -35 -18 -59 -32 -24 -14 -51 -25 -60 -25 -9 0 -25 -6
-36 -14 -22 -15 -57 -22 -164 -35 -60 -7 -77 -13 -92 -32 l-18 -24 -24 27
c-24 26 -42 32 -132 43 -27 3 -63 12 -80 20 -16 7 -37 16 -45 19 -8 4 -28 15
-45 26 -16 11 -37 23 -46 27 -9 5 -43 32 -77 62 -33 30 -68 56 -78 57 -10 2
-21 9 -25 16 -17 29 -35 46 -56 53 -27 8 -32 -15 -8 -35 8 -7 15 -16 15 -21 0
-15 -40 -10 -46 6 -4 9 -19 15 -36 15 -27 0 -29 -2 -23 -28 5 -25 2 -30 -38
-50 -24 -12 -55 -35 -70 -52 -38 -43 -94 -75 -154 -89 -101 -24 -226 25 -302
119 -23 29 -39 40 -59 40 -25 0 -30 6 -45 53 -9 28 -18 70 -19 92 -3 35 -6 40
-28 40 -31 0 -38 33 -15 68 12 19 13 31 6 51 -14 36 -57 35 -116 -5 -43 -29
-47 -30 -70 -15 -39 26 -61 19 -115 -34 -43 -44 -50 -56 -50 -90 0 -43 -14
-51 -36 -22 -12 15 -15 15 -23 2 -6 -8 -15 -37 -22 -65 -15 -63 -24 -75 -59
-75 -30 0 -60 -34 -60 -67 0 -28 -70 -69 -167 -98 -61 -18 -65 -18 -125 0 -70
21 -110 47 -181 117 -26 27 -53 48 -59 48 -5 0 -32 22 -58 49 -44 45 -49 55
-55 108 -3 32 -11 67 -17 78 -16 28 -22 295 -8 390 6 44 13 96 15 115 13 111
18 138 32 170 9 19 23 43 32 54 14 16 16 60 15 387 -1 203 2 369 7 369 4 0 11
10 15 22 9 28 44 57 70 58 11 0 29 7 40 15 16 12 69 14 299 15 168 0 294 -4
315 -11z"/>
<path d="M5912 2051 c-8 -5 -12 -17 -10 -27 3 -16 14 -19 71 -22 60 -3 67 -1
67 16 0 29 -96 54 -128 33z"/>
<path d="M410 1813 c-3 -107 1 -1468 4 -1471 6 -5 289 -2 295 4 4 3 -9 206
-26 427 l-5 57 164 0 c125 0 170 4 192 15 15 8 36 15 46 15 9 0 37 11 61 25
24 13 55 29 68 35 30 13 148 131 161 161 5 13 14 31 19 39 11 19 35 82 51 135
19 64 1 243 -26 266 -8 6 -14 18 -14 26 0 35 -144 183 -178 183 -5 0 -15 7
-22 15 -7 8 -22 15 -34 15 -12 0 -27 5 -34 12 -11 11 -34 15 -217 38 -93 11
-505 14 -505 3z m609 -90 c39 -15 12 -22 -104 -27 -59 -2 -112 -9 -118 -15 -6
-6 -21 -11 -34 -11 -13 0 -23 -4 -23 -10 0 -6 38 -10 94 -10 52 0 98 -4 101
-10 7 -12 -39 -24 -66 -17 -12 3 -55 -1 -96 -9 -41 -8 -76 -14 -78 -14 -10 0
-48 -47 -57 -70 -5 -14 -11 -47 -13 -75 -2 -27 -9 -74 -16 -104 -9 -42 -10
-58 0 -73 7 -11 9 -33 5 -52 -3 -20 -1 -36 5 -40 6 -4 13 -28 17 -54 9 -64 40
-88 135 -103 67 -10 153 -8 237 7 29 6 32 4 32 -20 0 -22 4 -26 29 -26 17 0
32 -4 36 -9 10 -17 -26 -41 -61 -41 -19 0 -34 -4 -34 -10 0 -5 -7 -10 -15 -10
-8 0 -15 7 -15 15 0 9 9 15 25 15 14 0 25 6 25 13 0 9 -33 12 -139 12 -77 0
-143 -3 -146 -7 -4 -4 -5 -13 -2 -21 4 -10 29 -14 98 -15 51 -1 97 -6 103 -12
7 -7 -1 -11 -25 -12 -90 -5 -118 -8 -169 -17 -76 -13 -82 -16 -113 -63 -23
-35 -27 -54 -28 -118 -3 -127 -2 -125 -21 -122 -10 2 -18 -2 -18 -8 0 -5 9
-10 20 -10 11 0 20 -4 20 -9 0 -5 2 -16 5 -23 4 -9 -11 -28 -36 -48 l-42 -33
-18 22 c-17 21 -18 57 -18 602 l0 580 29 11 c34 12 36 16 13 33 -10 7 -13 17
-8 25 6 10 55 12 234 7 124 -3 237 -9 250 -14z m146 -67 c6 -6 27 -24 47 -40
20 -15 41 -40 47 -57 5 -16 21 -34 34 -40 42 -19 79 -174 58 -242 -5 -18 -15
-51 -21 -74 -8 -33 -17 -44 -36 -49 -13 -4 -31 -19 -40 -35 -8 -16 -25 -36
-38 -44 -13 -9 -26 -25 -29 -35 -4 -15 -14 -20 -40 -20 -62 0 -74 49 -17 69
19 6 34 22 44 44 8 21 26 40 45 48 32 14 41 36 19 44 -9 4 -13 33 -12 101 1
93 0 97 -32 146 -19 28 -34 56 -34 64 0 17 -31 34 -64 34 -16 0 -26 6 -26 15
0 10 -10 15 -34 15 -19 0 -47 5 -62 10 l-26 10 24 24 c13 14 39 26 58 29 51 7
123 -2 135 -17z m-188 -122 c17 -7 36 -14 42 -14 15 0 61 -29 85 -54 77 -77
74 -232 -4 -304 -56 -52 -86 -59 -245 -63 l-150 -4 -1 225 c-1 124 2 227 7
230 16 11 235 -2 266 -16z"/>
<path d="M4590 1815 c0 -3 0 -335 0 -737 l-1 -733 143 0 143 0 1 475 c0 356 4
475 12 474 28 -2 32 -5 32 -18 0 -15 70 -155 126 -251 19 -33 39 -69 44 -80 6
-11 19 -33 30 -50 11 -16 26 -43 33 -60 8 -16 31 -54 51 -84 20 -29 36 -55 36
-57 0 -14 44 -44 63 -44 23 0 74 46 90 80 4 8 16 29 27 45 11 17 23 37 27 45
4 8 24 44 46 79 21 35 43 74 48 85 5 12 18 35 29 51 11 17 24 39 30 50 17 31
33 58 56 90 11 17 24 38 27 48 5 13 15 17 34 15 l28 -3 0 -115 c0 -63 -6 -194
-12 -290 -7 -96 -13 -245 -15 -330 l-3 -155 70 -1 c39 0 106 -3 150 -5 l80 -4
3 743 2 743 -151 -3 -151 -3 -34 -60 c-19 -33 -40 -71 -47 -85 -6 -14 -15 -27
-19 -30 -4 -3 -12 -17 -18 -30 -5 -14 -19 -38 -30 -55 -11 -16 -23 -37 -27
-45 -3 -8 -18 -33 -32 -55 -14 -22 -32 -53 -41 -70 -45 -82 -55 -100 -61 -105
-7 -6 -30 -49 -60 -112 -13 -27 -28 -48 -34 -48 -17 0 -42 30 -65 80 -12 25
-30 59 -40 75 -25 40 -47 76 -60 100 -5 11 -19 34 -30 50 -11 17 -24 39 -30
50 -6 11 -19 34 -30 50 -11 17 -24 39 -30 50 -6 11 -19 34 -30 50 -11 17 -24
39 -30 50 -6 11 -25 47 -43 80 l-32 60 -153 3 c-83 1 -152 0 -152 -3z m207
-101 c26 -38 62 -69 80 -69 10 0 20 -15 27 -38 6 -20 21 -44 34 -53 12 -8 22
-23 22 -33 0 -30 27 -85 48 -98 11 -6 22 -28 25 -50 5 -29 14 -42 38 -56 22
-12 29 -22 25 -33 -8 -21 11 -44 35 -44 20 0 33 -22 43 -72 7 -33 71 -73 131
-82 34 -6 45 -3 73 21 18 15 40 44 50 63 14 28 23 35 44 33 28 -2 42 21 38 64
-1 13 8 28 23 38 14 9 27 28 30 43 3 15 14 36 24 47 11 11 30 41 43 68 13 26
27 47 31 47 5 0 6 6 3 13 -2 7 4 22 16 32 11 10 20 29 20 42 0 13 8 26 18 30
9 3 25 14 34 24 10 10 25 22 35 27 13 8 15 13 5 24 -15 19 3 38 35 38 15 0 23
-6 23 -18 0 -31 29 -62 58 -62 l27 0 4 -498 c2 -273 3 -508 2 -522 -1 -14 -3
-52 -4 -85 l-2 -60 -35 -3 c-19 -1 -48 -3 -65 -5 l-30 -2 3 125 c1 69 6 191
10 272 18 335 -29 446 -163 387 -33 -15 -46 -28 -59 -59 -16 -39 -46 -54 -61
-30 -13 21 -26 -3 -23 -42 2 -34 -3 -44 -25 -62 -19 -15 -27 -31 -27 -53 0
-27 -4 -32 -30 -38 -18 -4 -31 -15 -35 -28 -11 -36 -36 -90 -57 -120 -28 -39
-72 -35 -76 8 -2 16 -10 34 -17 40 -8 5 -19 30 -25 54 -9 33 -18 46 -39 54
-25 9 -56 58 -52 81 1 4 -5 13 -14 20 -11 8 -16 30 -18 70 -3 65 -17 81 -35
41 -17 -38 -43 -28 -62 22 -10 28 -28 51 -54 68 -39 26 -39 26 -72 9 -32 -18
-54 -56 -54 -94 0 -10 -6 -29 -13 -43 -9 -17 -12 -47 -9 -84 2 -32 4 -69 4
-83 -1 -14 -2 -133 -4 -265 -3 -224 -4 -240 -21 -243 -34 -7 -82 8 -94 28 -16
25 -6 53 18 47 24 -7 47 19 31 35 -9 9 -15 9 -24 0 -34 -34 -48 15 -41 145 5
113 6 201 0 473 -1 91 1 175 5 187 4 12 8 74 9 137 l2 114 33 7 c42 7 53 24
28 42 -16 12 -17 15 -4 23 24 16 38 12 57 -16z"/>
<path d="M6653 1414 c-21 -8 -47 -14 -58 -14 -11 -1 -38 -12 -60 -25 -22 -14
-50 -29 -63 -35 -29 -13 -152 -137 -152 -154 0 -8 -7 -19 -15 -26 -8 -7 -15
-20 -15 -30 0 -10 -7 -23 -15 -30 -8 -7 -15 -22 -15 -34 0 -11 -7 -39 -15 -61
-20 -55 -19 -214 1 -284 30 -104 75 -182 149 -257 38 -39 90 -80 115 -91 25
-11 61 -28 82 -37 25 -11 65 -16 137 -16 92 0 107 3 165 30 36 17 88 53 115
80 57 56 65 53 65 -25 l1 -50 60 -8 c33 -4 92 -6 130 -5 l70 3 1 528 2 527
-112 0 c-135 0 -159 -11 -155 -69 5 -63 -7 -66 -70 -16 -65 51 -126 85 -154
85 -10 0 -26 4 -35 9 -31 16 -119 18 -159 5z m95 -133 c3 -43 3 -43 -25 -38
-16 3 -46 -3 -73 -15 -25 -11 -60 -26 -77 -34 -18 -7 -33 -20 -33 -27 0 -7
-13 -23 -30 -35 -18 -14 -31 -35 -36 -57 -8 -43 -15 -49 -48 -34 -21 10 -26
19 -26 49 0 32 7 44 43 76 23 21 47 47 52 59 6 11 23 22 38 25 16 3 33 15 40
30 15 30 41 37 75 19 22 -13 26 -12 40 9 9 14 23 22 36 20 17 -2 22 -11 24
-47z m90 3 c4 -30 -21 -48 -47 -34 -23 12 -28 45 -8 54 25 10 52 1 55 -20z
m221 -41 c32 -3 57 -1 64 6 19 19 59 12 99 -15 29 -21 37 -32 32 -47 -3 -10
-6 -114 -6 -231 0 -157 -4 -218 -14 -237 -11 -23 -11 -29 1 -39 16 -14 19
-167 2 -187 -5 -7 -22 -13 -38 -13 -17 0 -34 -8 -42 -20 -12 -18 -15 -18 -20
-6 -9 23 -68 56 -99 56 -21 0 -28 5 -28 19 0 11 -3 26 -6 34 -3 10 5 18 25 25
23 8 31 17 31 36 0 26 23 56 43 56 7 0 19 5 27 10 13 8 13 11 -3 22 -16 12
-16 19 -6 65 18 75 -2 260 -29 279 -11 7 -22 27 -25 44 -4 20 -15 34 -31 40
-34 12 -41 28 -22 49 16 17 14 19 -24 25 -32 5 -40 10 -40 27 0 18 4 20 28 14
15 -4 51 -9 81 -12z m-173 -114 c191 -101 238 -299 107 -448 -63 -72 -118 -96
-223 -96 -77 1 -89 3 -132 30 -52 34 -76 60 -112 130 -22 41 -26 61 -26 136 0
106 11 130 98 217 l63 62 83 0 c74 0 90 -4 142 -31z m-494 -118 c-2 -29 -1
-30 17 -19 28 17 31 10 20 -46 -13 -72 5 -213 31 -241 11 -12 20 -33 20 -48 0
-17 9 -32 26 -43 14 -9 32 -30 40 -47 14 -26 20 -29 53 -24 21 2 46 0 56 -5 9
-6 43 -16 74 -23 44 -11 66 -11 103 -1 26 6 50 15 54 19 11 10 36 9 30 -2 -12
-19 -92 -53 -132 -55 -23 -2 -47 -7 -54 -11 -6 -4 -23 -1 -36 6 -20 10 -32 10
-58 1 -18 -7 -43 -12 -57 -12 -30 0 -69 26 -69 46 0 8 -3 14 -7 14 -19 0 -92
78 -106 113 -11 25 -22 37 -36 37 -22 0 -25 8 -36 95 -8 59 -8 76 0 175 9 116
10 120 42 111 24 -7 28 -13 25 -40z m366 -584 c21 -19 42 -22 42 -7 0 6 10 10
22 10 16 0 19 -3 11 -11 -17 -17 -105 -29 -160 -21 -38 6 -49 11 -51 28 -3 19
1 21 57 20 41 -1 66 -7 79 -19z"/>
<path d="M7164 917 c-3 -9 -2 -40 3 -69 l9 -53 8 59 c5 38 4 62 -3 69 -7 7
-12 6 -17 -6z"/>
<path d="M6358 944 c-9 -9 -8 -77 1 -119 7 -30 7 -30 13 10 7 45 -3 121 -14
109z"/>
<path d="M8115 1417 c-22 -4 -54 -11 -72 -14 -18 -3 -38 -11 -44 -19 -6 -8
-18 -14 -27 -14 -8 0 -23 -7 -32 -15 -10 -9 -33 -18 -53 -22 -29 -4 -36 -2
-41 14 -13 40 -63 55 -169 51 l-98 -3 0 -524 c0 -289 4 -527 8 -530 5 -3 65
-5 136 -3 l127 3 0 318 c0 269 3 325 17 367 34 102 83 134 204 134 178 0 200
-58 199 -527 -1 -157 1 -287 4 -290 8 -9 258 -5 266 4 10 13 -6 630 -19 713
-22 135 -40 179 -101 240 -57 58 -99 85 -160 102 -75 20 -106 24 -145 15z
m138 -111 c17 -5 27 -15 27 -27 0 -11 7 -22 16 -26 23 -9 104 -89 104 -103 0
-7 6 -24 14 -38 40 -79 47 -126 51 -363 2 -129 2 -242 -1 -251 -6 -22 -27 -23
-43 -4 -8 10 -23 13 -47 9 -32 -5 -34 -4 -34 25 0 17 3 38 6 47 6 14 10 13 30
-12 20 -24 25 -26 34 -13 27 41 -2 86 -41 61 -17 -10 -21 -8 -31 14 -8 17 -8
32 -2 48 12 27 -2 320 -16 347 -6 10 -10 33 -10 50 0 17 -5 40 -11 51 -20 38
-94 104 -119 106 -77 7 -96 15 -109 44 -7 16 -10 32 -8 36 7 11 155 10 190 -1z
m-470 -23 c-7 -3 -13 -9 -13 -14 0 -6 34 -9 83 -7 76 3 82 2 82 -17 0 -15 -8
-21 -35 -25 -30 -4 -35 -9 -38 -35 -2 -16 -14 -43 -26 -60 -31 -41 -47 -88
-55 -160 -5 -51 -9 -60 -26 -60 -19 0 -20 -7 -20 -97 0 -53 -3 -100 -7 -104
-10 -9 10 -34 28 -34 23 0 16 -34 -8 -45 -32 -14 -34 -41 -4 -68 14 -14 26
-29 26 -35 0 -17 -79 -36 -94 -23 -9 8 -12 98 -13 368 -1 340 0 358 18 371 10
7 19 22 19 33 0 14 7 19 29 19 17 0 33 5 37 11 4 8 10 7 18 -1 8 -9 8 -14 -1
-17z"/>
<path d="M8370 1026 c0 -10 9 -16 21 -16 24 0 21 23 -4 28 -10 2 -17 -3 -17
-12z"/>
<path d="M8370 922 c0 -32 4 -62 9 -68 5 -5 5 -38 0 -79 -6 -48 -6 -79 2 -97
14 -35 22 -35 44 -2 12 19 13 29 5 39 -6 7 -11 54 -11 106 0 127 -6 159 -30
159 -16 0 -19 -8 -19 -58z"/>
<path d="M7741 988 c1 -37 2 -39 9 -18 12 36 12 60 0 60 -5 0 -10 -19 -9 -42z"/>
<path d="M2700 1404 c-74 -14 -135 -35 -152 -52 -7 -7 -16 -12 -20 -12 -45 0
-228 -196 -228 -244 0 -7 -7 -19 -15 -26 -8 -7 -15 -23 -15 -35 0 -12 -7 -39
-15 -58 -8 -20 -15 -66 -15 -102 0 -36 7 -82 15 -102 8 -19 15 -46 15 -58 0
-12 7 -28 15 -35 8 -7 15 -19 15 -26 0 -61 149 -222 252 -271 126 -61 134 -63
241 -63 141 0 255 41 360 131 50 43 137 166 137 194 0 9 8 28 17 42 15 22 18
51 17 177 0 159 1 157 -57 276 -24 49 -150 183 -188 200 -13 5 -31 14 -39 19
-48 29 -186 62 -246 60 -16 -1 -58 -7 -94 -15z m134 -94 c16 -6 27 -6 31 0 12
19 47 10 77 -20 16 -16 34 -30 40 -30 22 0 78 -33 78 -46 0 -8 5 -14 10 -14 6
0 20 -10 32 -22 13 -13 32 -28 43 -33 25 -13 34 -58 22 -107 -7 -26 -4 -55 8
-103 13 -52 14 -70 4 -81 -7 -8 -9 -27 -5 -44 4 -22 1 -32 -9 -36 -19 -8 -19
-48 0 -64 8 -7 15 -28 15 -46 0 -28 -6 -38 -31 -53 -17 -11 -36 -30 -43 -42
-6 -13 -22 -29 -35 -36 -13 -6 -30 -26 -38 -43 -14 -35 -32 -37 -101 -9 -24
10 -37 11 -50 3 -26 -17 -143 -16 -176 1 -35 19 -31 19 -56 -7 -19 -21 -23
-22 -48 -8 -15 9 -31 26 -37 38 -5 12 -18 22 -27 22 -42 0 -162 144 -153 185
17 84 16 88 -10 82 -32 -6 -45 16 -44 75 1 83 10 120 27 113 20 -7 32 12 32
53 0 51 77 152 116 152 25 0 45 21 26 28 -22 7 -12 22 11 18 31 -7 92 16 92
34 0 39 132 66 199 40z m405 -307 c7 -16 12 -75 12 -150 1 -123 -6 -153 -36
-153 -14 0 -18 59 -6 75 5 5 12 38 16 73 6 49 4 68 -9 87 -20 30 -22 95 -3 95
8 0 19 -12 26 -27z m-313 -563 c8 0 14 -4 14 -8 0 -20 -58 -32 -155 -32 -85 0
-107 3 -121 18 -17 16 -16 17 21 20 21 2 49 -2 61 -9 19 -9 26 -9 39 1 8 7 25
10 37 7 13 -3 32 -1 43 3 11 5 26 7 33 4 8 -2 20 -4 28 -4z"/>
<path d="M2700 1233 c-14 -3 -34 -13 -45 -23 -11 -10 -32 -22 -48 -25 -15 -4
-32 -15 -37 -25 -5 -9 -23 -23 -39 -30 -23 -9 -31 -19 -33 -43 -2 -23 -8 -31
-19 -29 -9 1 -23 -6 -32 -16 -16 -17 -16 -21 -2 -50 13 -25 14 -42 6 -93 -6
-34 -8 -66 -4 -72 13 -21 10 -107 -3 -118 -18 -15 0 -39 27 -39 12 0 23 -10
29 -25 5 -14 21 -30 35 -35 14 -5 30 -21 36 -34 10 -20 21 -26 65 -32 30 -3
54 -11 54 -18 0 -21 127 -18 203 5 38 11 80 18 93 15 20 -5 26 -1 38 29 8 19
26 39 39 44 23 9 43 55 38 88 -1 7 8 26 20 42 19 25 22 42 21 109 0 45 -8 97
-17 123 -9 24 -21 60 -27 81 -14 50 -89 130 -125 131 -15 1 -32 7 -38 13 -23
26 -155 41 -235 27z m158 -82 c9 -5 37 -19 62 -31 39 -19 82 -57 115 -102 21
-28 38 -85 43 -141 3 -51 0 -66 -29 -123 -41 -78 -75 -115 -137 -146 -65 -32
-178 -31 -245 1 -53 26 -123 102 -132 143 -4 15 -11 30 -16 33 -5 4 -9 37 -9
75 0 38 4 71 9 75 5 3 13 19 16 37 4 17 11 36 16 42 75 99 146 144 232 145 31
1 65 -3 75 -8z"/>
<path d="M2367 914 c-8 -8 1 -24 14 -24 5 0 9 7 9 15 0 15 -12 20 -23 9z"/>
<path d="M2390 845 c0 -8 5 -15 10 -15 6 0 10 7 10 15 0 8 -4 15 -10 15 -5 0
-10 -7 -10 -15z"/>
<path d="M1610 1393 c-3 -122 1 -1048 4 -1051 7 -7 245 -4 256 3 6 4 10 113
10 289 0 296 1 307 47 391 33 61 60 74 151 75 69 0 84 3 90 18 4 9 7 66 7 127
l0 109 -55 -3 c-132 -6 -162 -11 -181 -34 -10 -12 -18 -29 -19 -38 0 -23 -23
-40 -39 -29 -9 5 -12 19 -9 41 9 55 4 58 -72 52 l-68 -6 -4 29 c-3 28 -5 29
-60 32 -32 2 -58 -1 -58 -5z m214 -148 c10 -14 30 -27 51 -31 19 -3 35 -11 35
-18 0 -6 3 -21 6 -33 4 -16 -4 -33 -35 -65 -22 -24 -45 -57 -51 -72 -5 -15
-15 -118 -21 -229 -5 -110 -12 -204 -15 -209 -3 -4 0 -17 6 -28 10 -19 4 -70
-9 -70 -3 0 -13 4 -21 10 -12 7 -12 14 -2 43 11 30 10 40 -4 71 -13 26 -15 41
-8 58 11 24 3 202 -9 214 -3 3 -14 4 -23 0 -12 -4 -13 -10 -6 -19 7 -8 7 -38
0 -96 -7 -59 -7 -86 1 -94 6 -6 11 -17 11 -25 0 -14 -27 -41 -42 -42 -9 0 -10
315 -2 348 4 12 13 22 20 22 17 0 18 12 2 28 -10 10 -10 17 0 32 10 16 10 24
0 39 -10 16 -9 25 2 45 12 24 11 28 -9 50 -27 28 -22 41 16 51 16 4 36 15 46
26 24 26 41 24 61 -6z m174 -29 c4 -29 -21 -66 -44 -66 -9 0 -11 11 -7 38 10
64 45 84 51 28z m-278 -675 c0 -10 -6 -25 -13 -35 -20 -27 -41 2 -28 38 11 28
41 26 41 -3z"/>
<path d="M3554 1095 c-5 -17 -23 -229 -19 -233 1 -2 182 -3 401 -3 l399 0 0
121 0 122 -389 1 c-252 1 -390 -2 -392 -8z m306 -75 c0 -5 -9 -10 -21 -10 -11
0 -17 5 -14 10 3 6 13 10 21 10 8 0 14 -4 14 -10z m130 0 c0 -5 -14 -10 -31
-10 -17 0 -28 4 -24 10 3 6 17 10 31 10 13 0 24 -4 24 -10z m150 0 c0 -5 -16
-10 -35 -10 -19 0 -35 5 -35 10 0 6 16 10 35 10 19 0 35 -4 35 -10z m-385 -80
c-3 -5 -15 -10 -26 -10 -10 0 -19 5 -19 10 0 6 12 10 26 10 14 0 23 -4 19 -10z
m410 0 c-8 -12 -326 -12 -346 1 -8 5 61 9 169 9 120 0 181 -3 177 -10z"/>
<path d="M1250 2145 c0 -8 5 -15 10 -15 6 0 10 7 10 15 0 8 -4 15 -10 15 -5 0
-10 -7 -10 -15z"/>
<path d="M7245 10 c-3 -5 3 -10 15 -10 12 0 18 5 15 10 -3 6 -10 10 -15 10 -5
0 -12 -4 -15 -10z"/>
</g>
</svg>
