<?xml version="1.0" standalone="no"?>
<!DOCTYPE svg PUBLIC "-//W3C//DTD SVG 20010904//EN"
 "http://www.w3.org/TR/2001/REC-SVG-20010904/DTD/svg10.dtd">
<svg version="1.0" xmlns="http://www.w3.org/2000/svg"
 width="300.000000pt" height="72.000000pt" viewBox="0 0 300.000000 72.000000"
 preserveAspectRatio="xMidYMid meet">
<metadata>
Created by potrace 1.10, written by Peter Selinger 2001-2011
</metadata>
<g transform="translate(0.000000,72.000000) scale(0.050000,-0.050000)"
fill="#fee304" stroke="none">
<path d="M0 779 c0 -407 7 -657 19 -650 18 12 121 -85 121 -114 0 -22 445 -18
480 5 17 11 22 20 12 20 -20 0 64 79 120 112 38 22 168 -76 168 -128 0 -42
1314 -31 1339 11 11 19 20 27 20 17 1 -9 20 6 43 35 22 30 49 48 60 42 10 -6
18 2 18 19 0 17 18 40 40 52 48 26 343 18 334 -9 -4 -11 31 -58 77 -105 l83
-86 228 0 c195 1 235 6 278 40 67 53 183 53 215 0 29 -45 2185 -65 2185 -20 0
11 20 20 45 20 33 1 38 5 18 18 -20 12 -11 24 35 44 l62 28 0 401 0 402 -50
47 c-27 26 -50 59 -50 75 0 15 -9 22 -20 15 -11 -7 -20 -5 -20 5 0 10 -14 35
-31 56 -18 22 -25 26 -17 9 13 -26 11 -26 -18 -3 -18 15 -31 37 -28 50 2 13
-8 20 -23 17 -14 -3 -56 13 -92 35 -36 22 -72 34 -81 26 -9 -8 -11 0 -5 18 10
27 -5 32 -97 32 -59 0 -108 -8 -108 -18 0 -10 -49 -15 -110 -12 -60 3 -110 1
-110 -5 0 -6 -23 -13 -51 -16 -28 -2 -67 -12 -86 -22 -19 -10 -47 -11 -64 -2
-27 15 -149 34 -245 38 -20 1 -32 9 -26 19 6 9 -2 16 -18 16 -16 0 -23 -8 -17
-18 7 -11 -7 -9 -29 3 -58 31 -151 29 -131 -3 10 -17 4 -16 -19 2 -22 18 -34
20 -34 5 0 -12 -14 -22 -31 -22 -17 0 -27 7 -21 16 5 10 -10 16 -34 15 -31 -1
-53 18 -74 64 l-30 64 -685 1 c-596 0 -685 -4 -685 -30 0 -16 -18 -48 -40 -70
-22 -22 -38 -42 -36 -45 2 -3 -22 -48 -52 -100 l-56 -95 -188 0 c-119 0 -188
8 -188 21 0 12 11 15 25 7 14 -8 18 -7 9 4 -9 9 -32 18 -50 18 -19 0 -31 12
-28 27 4 18 -6 24 -26 16 -20 -8 -52 8 -84 42 -29 30 -45 42 -36 27 13 -22 8
-26 -18 -15 -20 7 -40 13 -45 13 -5 0 -4 8 2 18 6 10 -11 16 -38 13 -28 -3
-45 2 -39 12 6 9 -44 17 -111 17 -72 0 -121 -9 -121 -21 0 -12 -9 -16 -21 -8
-11 7 -33 2 -48 -10 -18 -15 -32 -16 -40 -3 -7 11 -27 15 -45 8 -23 -9 -28 -5
-16 14 12 19 4 23 -32 14 -27 -7 -62 -4 -78 7 -25 15 -23 19 10 20 39 1 39 2
-2 18 -48 20 -253 15 -333 -8 -36 -10 -55 -8 -55 7 0 12 9 22 20 22 11 0 20
10 20 22 0 12 -13 17 -30 11 -16 -7 -30 -3 -30 8 0 12 -201 19 -530 19 l-530
0 0 -661z m779 586 c59 -29 96 -38 109 -25 11 11 29 20 41 20 12 0 9 -8 -5
-17 -19 -12 0 -44 71 -120 95 -101 165 -132 165 -73 0 24 33 30 180 30 l180 0
0 -72 c0 -73 100 -93 139 -29 29 46 227 62 321 26 31 -12 53 -17 94 -22 13 -2
65 -39 116 -83 108 -93 76 -86 380 -80 320 6 337 13 321 136 -14 100 41 203
150 279 21 15 39 40 39 56 0 45 105 35 182 -16 37 -25 93 -58 123 -73 30 -16
55 -38 56 -50 0 -25 69 -112 88 -112 8 0 7 10 0 22 -9 15 0 18 28 9 32 -10 51
1 85 53 117 177 418 260 418 115 0 -22 11 -39 25 -39 27 0 76 -87 107 -188 21
-70 53 -85 93 -44 41 41 243 75 306 52 27 -11 106 -14 174 -8 89 8 116 5 96
-9 -45 -31 -16 -45 99 -48 79 -1 109 6 123 32 12 21 44 33 89 33 48 0 66 -7
56 -23 -10 -17 0 -19 34 -8 227 69 295 53 470 -113 124 -117 162 -262 142
-546 -14 -200 -17 -206 -124 -285 -107 -78 -118 -79 -242 -13 -115 61 -182 73
-196 35 -26 -66 -141 -95 -242 -60 -84 28 -102 29 -164 2 -84 -34 -606 -43
-606 -9 0 11 -12 20 -28 20 -15 0 -38 14 -52 30 -37 44 -96 37 -164 -20 -114
-96 -322 -10 -432 180 -22 39 -23 39 -23 -2 -1 -34 -13 -42 -61 -40 -33 1 -60
10 -60 19 0 9 -47 -29 -104 -85 -57 -56 -122 -102 -145 -102 -23 0 -54 -9 -69
-18 -55 -35 -243 133 -269 242 -16 66 -78 104 -139 84 -24 -9 -111 -13 -194
-10 l-150 5 -124 -130 c-237 -247 -494 -280 -737 -92 -103 79 -144 99 -117 56
8 -14 5 -18 -8 -10 -11 8 -47 -10 -78 -39 -93 -88 -174 -114 -251 -80 -87 38
-175 125 -175 173 0 21 -9 39 -20 39 -12 0 -15 22 -7 53 12 49 9 52 -35 38
-26 -8 -66 -14 -87 -14 -47 1 -111 -52 -111 -91 0 -16 -9 -23 -19 -16 -11 6
-26 -11 -33 -39 -7 -28 -24 -51 -38 -51 -14 0 -40 -22 -57 -48 -67 -103 -189
-87 -334 45 l-89 80 1 247 c1 152 10 263 25 290 15 27 24 133 24 281 0 327 -1
326 330 319 181 -4 236 -12 309 -49z"/>
<path d="M280 733 l0 -493 103 0 103 0 -14 160 -13 160 114 0 c289 0 478 242
367 470 -67 137 -154 175 -435 186 l-225 9 0 -492z m419 278 c163 -85 80 -271
-122 -271 l-97 0 0 150 0 150 81 0 c45 0 106 -13 138 -29z"/>
<path d="M3060 730 l0 -490 99 0 100 0 5 315 6 315 96 -174 c176 -318 173
-318 335 -34 131 229 142 218 126 -133 l-13 -289 103 0 103 0 0 491 0 491
-102 -6 -103 -6 -130 -225 c-71 -123 -137 -220 -146 -214 -9 5 -73 108 -143
229 l-126 219 -105 1 -105 0 0 -490z"/>
<path d="M1782 940 c-431 -102 -310 -764 131 -715 387 44 428 609 51 714 -83
23 -87 23 -182 1z m210 -228 c127 -127 49 -312 -132 -312 -83 0 -180 94 -179
173 2 184 185 265 311 139z"/>
<path d="M4370 922 c-95 -43 -138 -88 -179 -187 -132 -315 192 -645 456 -466
69 47 73 48 73 10 0 -33 14 -39 90 -39 l90 0 0 350 0 350 -82 0 c-64 0 -84 -8
-92 -38 -9 -37 -13 -37 -101 10 -108 57 -149 59 -255 10z m285 -213 c62 -62
69 -78 58 -145 -26 -162 -219 -224 -321 -102 -166 196 81 429 263 247z"/>
<path d="M5340 928 c-52 -23 -79 -25 -105 -9 -19 11 -66 21 -105 21 l-70 0 0
-355 0 -355 88 7 89 7 6 240 c8 267 22 296 148 296 103 0 118 -38 126 -308 l7
-242 90 7 91 7 -8 265 c-11 384 -127 519 -357 419z"/>
<path d="M1080 590 l0 -350 90 0 90 0 0 191 c0 245 30 308 145 309 51 0 55 6
55 86 l0 86 -75 -8 c-41 -4 -86 -22 -100 -40 -23 -29 -25 -29 -25 2 0 23 -16
34 -50 34 -27 0 -50 9 -50 20 0 11 -18 20 -40 20 -38 0 -40 -13 -40 -350z"/>
<path d="M2360 660 l0 -80 270 0 270 0 0 80 0 80 -270 0 -270 0 0 -80z"/>
</g>
</svg>
