<?xml version="1.0" standalone="no"?>
<!DOCTYPE svg PUBLIC "-//W3C//DTD SVG 20010904//EN"
 "http://www.w3.org/TR/2001/REC-SVG-20010904/DTD/svg10.dtd">
<svg version="1.0" xmlns="http://www.w3.org/2000/svg"
 width="300.000000pt" height="72.000000pt" viewBox="0 0 300.000000 72.000000"
 preserveAspectRatio="xMidYMid meet">
<metadata>
Created by potrace 1.10, written by Peter Selinger 2001-2011
</metadata>
<g transform="translate(0.000000,72.000000) scale(0.100000,-0.100000)"
fill="#fee304" stroke="none">
<path d="M74 699 c-16 -17 -20 -43 -26 -153 -3 -72 -12 -166 -19 -210 -17
-107 -3 -212 35 -252 14 -16 26 -25 26 -21 0 5 12 -1 26 -12 30 -23 91 -28
127 -10 28 14 107 100 107 116 0 14 16 18 23 6 2 -5 3 -3 1 3 -1 7 11 14 27
16 20 3 26 1 19 -6 -13 -13 -13 -29 -1 -21 5 3 13 0 17 -6 3 -6 0 -15 -7 -20
-11 -7 -11 -9 -1 -9 7 0 25 -14 39 -30 53 -64 125 -77 186 -36 19 13 38 22 41
18 3 -3 6 2 6 10 0 11 7 14 25 10 15 -2 22 -9 18 -16 -3 -6 -3 -8 1 -4 5 4 26
-4 47 -17 34 -22 108 -47 134 -46 84 6 225 69 225 101 0 13 5 18 15 14 11 -5
13 -2 8 12 -5 13 -3 16 10 11 11 -4 17 -1 17 8 0 18 57 29 114 23 24 -3 51 -1
60 4 10 5 25 7 34 3 15 -6 15 -8 -3 -15 -13 -6 -15 -9 -5 -9 8 -1 30 -24 48
-51 17 -28 37 -50 43 -50 6 0 23 -9 37 -21 21 -16 34 -19 67 -13 37 6 96 38
103 56 2 5 9 5 14 2 7 -4 8 -2 4 4 -4 7 -1 12 9 12 9 0 13 5 9 11 -4 7 1 7 16
-1 16 -9 20 -9 15 -1 -5 8 2 10 22 5 38 -9 63 -23 63 -34 0 -11 63 -44 101
-54 25 -5 84 12 102 31 14 13 30 10 69 -14 34 -21 50 -23 163 -23 87 0 136 4
160 14 25 11 43 12 67 5 48 -13 101 -11 124 6 10 8 34 15 52 15 35 0 75 -16
68 -28 -7 -11 94 -8 102 3 4 6 20 16 35 23 17 7 25 17 21 24 -5 7 -2 9 8 6 8
-4 15 -1 16 5 1 7 6 36 10 65 11 68 7 198 -8 252 -8 30 -28 59 -71 101 -62 61
-86 74 -134 71 -16 -1 -67 -2 -113 -3 -62 0 -85 -4 -89 -15 -7 -19 -72 -18
-87 1 -8 11 -43 15 -143 18 -73 2 -134 0 -135 -4 -2 -4 -10 -9 -18 -11 -8 -2
-18 -7 -22 -13 -4 -5 -10 -1 -13 10 -18 54 -28 75 -37 75 -5 0 -6 5 -3 10 3 6
2 10 -4 10 -6 0 -17 14 -26 30 -15 29 -19 30 -79 30 -49 0 -65 -4 -70 -16 -3
-9 -11 -14 -18 -12 -11 4 -58 -37 -58 -51 0 -4 -8 -16 -19 -25 -17 -15 -20
-15 -34 -2 -8 8 -17 13 -20 10 -3 -3 -11 4 -17 16 -6 11 -23 26 -38 31 -22 8
-24 12 -12 21 12 8 11 9 -3 4 -23 -7 -44 3 -27 14 6 4 -19 8 -55 9 -59 1 -67
-1 -72 -18 -3 -11 -18 -25 -33 -31 -17 -7 -27 -17 -24 -25 3 -7 1 -16 -5 -20
-6 -3 -11 0 -12 7 -1 29 -23 -41 -28 -92 l-6 -55 -120 -6 c-103 -5 -125 -3
-155 12 -19 10 -28 18 -20 19 8 0 0 7 -18 15 -18 8 -31 19 -28 24 3 5 -3 7
-14 4 -11 -3 -20 -1 -20 5 0 11 -53 23 -120 27 -30 2 -56 -4 -78 -16 -41 -24
-42 -24 -43 4 -1 18 -2 19 -6 3 -4 -17 -6 -16 -17 5 -11 22 -19 24 -96 27 -53
2 -93 -2 -108 -9 -18 -10 -25 -10 -35 0 -9 10 -8 11 8 6 16 -5 17 -5 5 3 -8 6
-17 9 -21 6 -4 -2 -18 13 -30 33 -27 44 -37 53 -56 46 -7 -3 -31 2 -53 11 -30
12 -74 16 -169 16 -117 0 -129 -2 -147 -21z m320 -17 c27 -16 42 -20 49 -13 6
6 16 11 22 11 5 0 4 -4 -4 -9 -10 -7 -2 -20 36 -60 49 -50 83 -65 83 -36 0 12
17 15 90 15 l90 0 0 -35 c0 -28 4 -35 20 -35 11 0 20 4 20 10 0 5 7 7 15 4 8
-4 15 -1 15 6 0 7 8 9 21 5 15 -5 19 -4 15 4 -5 7 3 11 21 12 46 2 97 -3 108
-9 5 -3 17 -7 27 -7 9 -1 33 -15 53 -31 70 -55 81 -58 209 -55 65 1 130 7 143
12 23 9 24 13 18 57 -6 43 -3 51 25 87 17 21 40 45 50 52 11 8 20 21 20 29 0
23 53 17 94 -11 21 -14 43 -27 49 -28 15 -3 37 -23 37 -34 1 -10 36 -53 45
-53 3 0 3 5 -1 11 -4 7 0 9 14 5 17 -6 26 0 44 28 13 20 27 36 31 36 4 0 20
11 35 25 34 32 64 40 105 28 22 -6 33 -16 35 -31 2 -13 9 -21 15 -19 11 3 35
-41 53 -97 11 -36 26 -42 48 -20 9 9 20 14 23 10 3 -3 12 -1 19 4 6 6 32 11
56 10 181 -1 201 -2 178 -9 -24 -7 -24 -8 -4 -15 43 -14 116 -10 126 8 6 10
22 16 44 16 24 0 33 -4 28 -12 -5 -8 0 -9 17 -4 113 35 147 27 235 -56 49 -46
53 -54 65 -121 11 -68 8 -212 -6 -248 -3 -8 -23 -26 -45 -40 -22 -13 -40 -27
-40 -31 -1 -23 -123 25 -142 56 -6 8 -8 7 -8 -3 0 -7 -6 -11 -14 -8 -8 3 -17
-1 -20 -9 -3 -8 -22 -22 -42 -30 -32 -14 -41 -14 -81 0 -40 14 -49 14 -80 1
-42 -18 -303 -22 -303 -5 0 6 -6 10 -14 10 -7 0 -19 7 -26 15 -18 22 -48 18
-82 -10 -16 -14 -38 -25 -49 -25 -51 0 -133 57 -167 115 -11 20 -11 20 -12 -1
0 -16 -6 -21 -30 -21 -16 0 -30 4 -30 10 0 5 -23 -14 -52 -42 -37 -36 -60 -51
-79 -51 -15 0 -31 -4 -34 -10 -7 -11 -77 37 -104 72 -10 13 -21 35 -25 50 -8
33 -39 52 -69 42 -12 -4 -56 -6 -97 -5 l-75 2 -62 -64 c-122 -128 -248 -141
-377 -39 -33 25 -57 39 -53 30 4 -12 2 -15 -9 -11 -7 3 -14 1 -14 -5 0 -5 -17
-21 -38 -36 -51 -35 -100 -35 -144 1 -42 35 -48 43 -48 71 0 13 -4 20 -10 17
-6 -4 -9 4 -7 17 1 18 -2 22 -18 20 -11 -2 -29 -4 -41 -5 -26 -2 -54 -25 -54
-44 0 -8 -4 -11 -10 -8 -5 3 -12 -6 -16 -20 -3 -14 -12 -25 -20 -25 -7 0 -18
-9 -24 -19 -14 -26 -70 -44 -101 -32 -13 5 -44 27 -69 50 l-45 40 -2 108 c-1
71 3 122 13 148 9 25 14 82 14 156 0 116 6 139 40 153 8 3 67 4 130 3 100 -2
120 -5 154 -25z"/>
<path d="M1970 680 c0 -5 12 -10 26 -10 14 0 23 4 19 10 -3 6 -15 10 -26 10
-10 0 -19 -4 -19 -10z"/>
<path d="M140 364 l0 -249 51 0 51 0 -5 83 -6 82 56 0 c104 0 182 60 198 152
5 28 2 49 -15 83 -33 69 -77 87 -217 93 l-113 5 0 -249z m235 212 c22 -8 40
-18 40 -23 0 -4 3 -7 7 -6 19 7 33 -36 33 -98 0 -58 -3 -71 -25 -93 -13 -15
-30 -24 -38 -21 -7 2 -10 0 -7 -5 9 -14 -33 -28 -91 -31 -81 -4 -84 -8 -79
-96 4 -69 3 -74 -10 -57 -9 11 -14 13 -13 5 2 -7 -3 -16 -9 -18 -12 -4 -18 19
-15 59 1 10 -3 18 -8 18 -6 0 -10 5 -10 11 0 5 6 7 13 3 9 -6 9 -4 2 7 -6 8
-10 37 -8 64 9 150 10 215 3 215 -4 0 -7 11 -7 25 0 19 5 25 21 25 20 1 20 2
-4 15 -23 13 -17 14 70 14 56 1 111 -5 135 -13z"/>
<path d="M325 560 c-3 -6 1 -7 9 -4 18 7 21 14 7 14 -6 0 -13 -4 -16 -10z"/>
<path d="M232 528 c-12 -12 -17 -134 -6 -162 7 -19 81 -22 130 -4 42 15 62 68
43 113 -7 17 -12 33 -11 38 1 4 -1 6 -5 5 -5 -1 -26 4 -48 10 -51 15 -88 15
-103 0z m117 -23 c48 -24 55 -72 16 -110 -19 -20 -34 -25 -75 -25 l-50 0 0 75
0 75 40 0 c23 0 54 -7 69 -15z"/>
<path d="M420 520 c0 -5 5 -10 11 -10 5 0 7 5 4 10 -3 6 -8 10 -11 10 -2 0 -4
-4 -4 -10z"/>
<path d="M250 321 c0 -5 11 -8 25 -8 14 0 25 2 25 6 0 4 -11 8 -25 9 -14 1
-25 -2 -25 -7z"/>
<path d="M1530 365 l0 -245 50 0 49 0 3 158 3 157 47 -86 c64 -117 81 -137
101 -121 8 7 39 53 68 102 28 49 56 87 60 84 5 -2 5 -71 2 -152 l-6 -147 52 0
51 0 0 248 0 248 -51 -3 -51 -3 -65 -112 c-36 -62 -69 -110 -74 -108 -4 3 -36
55 -71 115 l-63 110 -52 0 -53 0 0 -245z m145 138 c28 -48 53 -94 57 -104 4
-10 15 -22 25 -27 22 -12 42 1 63 43 37 73 84 145 89 137 3 -6 11 -4 19 4 11
12 10 14 -3 14 -9 0 -13 5 -10 10 3 6 22 10 41 10 34 0 49 -19 17 -21 -17 -1
-17 -2 0 -6 15 -4 17 -23 17 -217 l0 -212 -27 2 -28 1 4 125 c2 69 0 135 -4
147 -11 36 -43 26 -73 -24 -77 -129 -84 -138 -93 -124 -5 8 -9 10 -9 5 0 -6
-6 -1 -14 10 -8 10 -13 30 -10 44 3 20 3 21 -4 6 -8 -18 -10 -17 -25 13 -12
24 -14 38 -6 52 6 12 6 19 0 19 -5 0 -11 -8 -14 -17 -3 -14 -6 -12 -15 10 -13
31 -38 45 -54 29 -6 -6 -9 -66 -9 -151 l2 -141 -33 1 c-28 0 -30 2 -13 9 16 7
17 9 3 9 -15 1 -17 22 -17 216 l-1 215 38 0 c36 0 38 -3 87 -87z"/>
<path d="M1568 563 c7 -3 16 -2 19 1 4 3 -2 6 -13 5 -11 0 -14 -3 -6 -6z"/>
<path d="M1615 560 c3 -5 8 -10 11 -10 2 0 4 5 4 10 0 6 -5 10 -11 10 -5 0 -7
-4 -4 -10z"/>
<path d="M1836 397 c3 -10 9 -15 12 -12 3 3 0 11 -7 18 -10 9 -11 8 -5 -6z"/>
<path d="M881 465 c-53 -17 -88 -48 -112 -100 -23 -50 -23 -89 0 -140 84 -186
345 -132 342 71 0 30 -7 67 -15 83 -21 39 -69 78 -114 91 -45 12 -46 12 -101
-5z m143 -36 c43 -26 69 -76 69 -134 0 -73 -26 -117 -90 -153 -55 -30 -173 0
-188 49 -4 11 -11 16 -17 13 -7 -5 -9 -1 -5 9 3 9 1 17 -6 20 -7 2 -12 25 -12
60 0 42 5 63 22 84 11 15 26 27 32 26 6 -2 8 3 5 11 -3 8 4 17 18 21 74 26
123 24 172 -6z"/>
<path d="M866 376 c-34 -32 -41 -50 -36 -105 1 -13 -4 -28 -12 -33 -10 -8 -9
-8 5 -4 10 3 17 0 17 -8 0 -31 105 -58 140 -36 9 6 17 5 23 -3 5 -8 7 -8 5 3
-2 8 1 15 6 15 5 0 14 19 21 43 14 47 5 101 -20 122 -8 7 -12 17 -8 23 4 6 0
8 -10 4 -9 -3 -19 -2 -22 3 -4 6 -21 10 -40 10 -24 0 -43 -9 -69 -34z m130
-20 c37 -37 42 -62 19 -106 -30 -59 -98 -68 -146 -21 -45 45 -34 116 22 147
40 22 69 16 105 -20z"/>
<path d="M791 344 c0 -11 3 -14 6 -6 3 7 2 16 -1 19 -3 4 -6 -2 -5 -13z"/>
<path d="M1061 334 c0 -11 3 -14 6 -6 3 7 2 16 -1 19 -3 4 -6 -2 -5 -13z"/>
<path d="M1066 294 c-4 -9 -4 -19 -1 -22 2 -3 7 3 11 12 4 9 4 19 1 22 -2 3
-7 -3 -11 -12z"/>
<path d="M1055 250 c-3 -5 -1 -10 4 -10 6 0 11 5 11 10 0 6 -2 10 -4 10 -3 0
-8 -4 -11 -10z"/>
<path d="M945 160 l-30 -8 27 -1 c15 0 30 4 33 9 3 6 5 9 3 9 -2 -1 -16 -5
-33 -9z"/>
<path d="M2180 458 c-50 -25 -86 -73 -96 -124 -29 -154 122 -279 240 -199 34
23 36 23 36 5 0 -17 7 -20 45 -20 l45 0 0 175 0 175 -41 0 c-31 0 -42 -4 -46
-18 -4 -18 -7 -17 -50 5 -58 29 -77 29 -133 1z m132 -20 c48 -20 51 -21 60 -4
8 15 12 16 19 5 6 -10 9 -11 9 -1 0 6 7 12 15 12 8 0 15 -4 15 -10 0 -5 -6
-10 -12 -10 -10 0 -10 -2 -1 -8 16 -10 15 -182 -1 -182 -8 0 -8 -2 0 -8 17
-10 14 -92 -3 -92 -8 0 -11 4 -8 10 3 5 1 10 -4 10 -6 0 -11 -4 -11 -10 0 -5
-5 -10 -11 -10 -5 0 -7 5 -4 10 13 20 -23 21 -56 1 -43 -26 -104 -27 -145 -2
-63 38 -90 143 -58 219 15 34 23 41 39 36 16 -4 17 -3 5 5 -17 12 -14 16 30
35 47 20 63 20 122 -6z"/>
<path d="M2212 398 c-7 -7 -12 -8 -12 -4 0 5 -9 -3 -21 -17 -27 -35 -35 -89
-18 -129 21 -52 36 -62 95 -62 45 -1 57 3 83 28 26 25 31 37 31 77 0 26 -5 51
-11 54 -6 4 -8 14 -5 22 3 8 2 12 -2 9 -5 -3 -23 4 -40 15 -37 22 -82 25 -100
7z m114 -42 c37 -37 42 -62 19 -106 -19 -36 -43 -50 -88 -50 -45 0 -87 46 -87
95 0 21 9 45 26 64 37 44 84 43 130 -3z"/>
<path d="M2130 240 c0 -5 5 -10 11 -10 5 0 7 5 4 10 -3 6 -8 10 -11 10 -2 0
-4 -4 -4 -10z"/>
<path d="M2146 185 c4 -8 11 -15 16 -15 6 0 5 6 -2 15 -7 8 -14 15 -16 15 -2
0 -1 -7 2 -15z"/>
<path d="M2280 164 c-31 -11 -32 -13 -10 -13 14 0 34 6 44 14 23 18 14 17 -34
-1z"/>
<path d="M2670 464 c-26 -11 -39 -13 -52 -5 -10 6 -34 11 -53 11 l-35 0 0
-177 0 -178 42 0 43 0 5 123 c5 135 13 152 70 152 57 0 65 -17 68 -152 l4
-123 45 0 45 0 -4 136 c-3 108 -7 141 -21 162 -37 56 -100 77 -157 51z m85
-14 c14 -5 23 -14 20 -20 -3 -5 0 -7 9 -4 27 10 40 -37 44 -166 l4 -125 -26 0
c-26 0 -26 1 -26 80 -1 96 -12 158 -32 178 -13 14 -53 21 -102 18 -11 -1 -16
-4 -13 -8 4 -3 -1 -15 -10 -25 -13 -15 -18 -43 -21 -119 -3 -54 -8 -96 -12
-94 -5 3 -11 1 -15 -5 -3 -5 1 -10 9 -10 9 0 16 -4 16 -8 0 -5 -10 -8 -22 -7
-23 2 -23 4 -26 158 l-3 157 25 0 c28 0 43 -15 24 -24 -7 -3 1 -2 17 1 17 3
44 12 60 19 37 16 47 17 80 4z"/>
<path d="M2790 350 c0 -5 5 -10 11 -10 5 0 7 5 4 10 -3 6 -8 10 -11 10 -2 0
-4 -4 -4 -10z"/>
<path d="M2802 250 c0 -19 2 -27 5 -17 2 9 2 25 0 35 -3 9 -5 1 -5 -18z"/>
<path d="M2795 200 c3 -5 8 -10 11 -10 2 0 4 5 4 10 0 6 -5 10 -11 10 -5 0 -7
-4 -4 -10z"/>
<path d="M2790 160 c0 -5 5 -10 10 -10 6 0 10 5 10 10 0 6 -4 10 -10 10 -5 0
-10 -4 -10 -10z"/>
<path d="M540 293 l0 -178 45 0 45 0 0 98 c0 125 14 157 73 157 25 0 27 3 27
43 l0 43 -37 -4 c-21 -2 -44 -11 -50 -20 -12 -14 -13 -14 -13 1 0 11 -8 17
-25 17 -14 0 -25 5 -25 10 0 6 -9 10 -20 10 -19 0 -20 -7 -20 -177z m34 135
c-5 -7 -1 -7 11 0 14 7 23 4 40 -14 22 -24 23 -24 28 -4 7 28 57 28 57 0 0
-11 -7 -20 -15 -20 -23 0 -63 -22 -72 -39 -4 -9 -10 -63 -13 -121 -4 -70 -9
-98 -14 -83 -5 13 -12 20 -17 17 -5 -3 -7 -9 -4 -14 3 -5 1 -11 -5 -15 -7 -4
-10 48 -10 155 0 107 3 159 10 155 6 -4 7 -11 4 -17z"/>
<path d="M574 265 c0 -19 3 -35 8 -35 4 0 8 16 8 35 0 46 -15 46 -16 0z"/>
<path d="M576 195 c4 -8 8 -15 10 -15 2 0 4 7 4 15 0 8 -4 15 -10 15 -5 0 -7
-7 -4 -15z"/>
<path d="M1186 348 c-15 -59 -18 -58 129 -58 l135 0 0 40 0 40 -129 0 c-125 0
-129 -1 -135 -22z m240 -19 c0 -18 -8 -19 -116 -18 -73 1 -106 4 -90 9 14 4
22 9 18 10 -5 1 -12 4 -18 5 -24 6 -23 8 4 14 15 3 67 5 115 3 78 -3 87 -5 87
-23z"/>
<path d="M1173 493 c9 -2 23 -2 30 0 6 3 -1 5 -18 5 -16 0 -22 -2 -12 -5z"/>
</g>
</svg>
