<svg width="300" height="72" xmlns="http://www.w3.org/2000/svg" version="1.0" preserveAspectRatio="xMidYMid meet">
 <metadata>Created by potrace 1.10, written by Peter Selinger 2001-2011</metadata>

 <g>
  <title>Layer 1</title>
  <g transform="translate(0.000000,72.000000) scale(0.050000,-0.050000)" fill="#fee304" id="svg_1">
   <path d="m350,1423c-58,-6 -123,-43 -76,-43c13,0 -14,-36 -60,-81l-82,-81l2,-179c2,-98 -5,-183 -14,-189c-9,-5 -16,71 -15,170c1,99 -5,186 -12,193c-7,8 -14,-85 -14,-205c-4,-468 0,-734 10,-744c10,-10 21,322 12,366c-3,11 3,12 12,3c10,-9 18,-76 20,-150c5,-259 7,-290 20,-277c7,7 30,-9 51,-36c59,-76 164,-96 253,-49c40,21 65,39 55,39c-9,0 -6,13 8,30c13,16 32,25 41,20c8,-6 22,18 30,52c10,47 18,56 31,36c13,-21 17,-18 18,15c0,47 90,119 110,87c7,-12 31,-7 59,11c55,36 80,13 61,-56c-9,-31 -7,-37 6,-18c13,19 22,2 32,-56c7,-46 21,-78 31,-72c10,7 30,-4 45,-24c76,-103 215,-116 298,-27c22,23 48,42 59,42c10,0 18,7 17,15c-7,39 6,45 47,22c41,-21 43,-21 17,10c-24,30 -23,32 5,21c18,-7 33,-22 33,-33c0,-12 5,-16 12,-10c7,7 32,-7 55,-31c62,-63 167,-114 235,-114c33,0 58,-11 58,-25c1,-19 5,-18 18,2c9,15 39,24 66,20c51,-7 206,53 252,98c15,14 35,25 45,25c11,0 19,8 19,18c0,27 113,142 139,142c13,0 18,9 11,20c-7,11 8,21 34,21c25,1 98,3 161,5c63,2 115,-5 115,-15c0,-10 11,-8 24,5c59,59 176,4 176,-84c0,-29 13,-58 28,-64c15,-6 33,-29 39,-51c6,-23 19,-36 30,-29c11,7 23,5 26,-3c4,-8 38,-36 75,-63c37,-26 61,-37 54,-25c-12,20 33,29 100,22c6,-1 26,15 45,36c18,20 56,53 83,72c28,18 50,45 50,58c0,13 17,28 37,32c25,4 33,-1 23,-17c-11,-18 -5,-19 26,-2c31,16 43,15 51,-3c7,-19 15,-18 30,4c11,16 16,36 11,45c-6,9 -5,16 1,16c7,0 21,-22 31,-50c10,-27 33,-50 50,-50c16,0 30,-13 30,-28c0,-15 33,-48 73,-71c78,-46 207,-70 207,-38c0,11 8,14 19,8c10,-6 30,5 45,26c40,57 106,70 147,29c20,-20 44,-37 53,-38c9,-2 26,-4 37,-5c12,-2 17,-10 11,-20c-12,-20 -1,-21 188,-20c83,0 194,0 248,-1c57,-1 118,11 145,28c58,38 103,38 195,0c82,-35 166,-7 239,77c20,24 31,32 24,18c-8,-14 -5,-25 6,-25c11,0 24,11 30,25c8,20 10,20 11,0c1,-14 17,-25 35,-25c18,0 47,-17 65,-37c32,-37 212,-76 191,-41c-6,10 -3,18 7,18c10,0 40,19 66,42c26,23 61,49 78,58c41,23 54,434 18,561c-14,49 -26,94 -27,99c-2,11 -122,128 -190,185c-23,19 -50,35 -61,35c-11,0 -20,7 -20,17c0,24 -204,13 -254,-14c-55,-29 -110,-32 -66,-3c22,14 4,19 -65,20c-71,0 -95,-8 -95,-30c0,-17 -7,-28 -15,-26c-8,2 -33,-2 -55,-9c-22,-8 -89,-1 -150,15c-60,16 -85,26 -55,22c31,-4 62,3 69,14c8,14 -32,16 -120,8c-73,-7 -137,-5 -143,4c-15,25 -242,9 -236,-16c2,-11 -10,-15 -27,-8c-18,6 -38,2 -46,-11c-37,-59 -107,-35 -110,38c-2,42 -22,91 -47,119c-24,25 -39,54 -33,63c5,9 -4,11 -22,4c-20,-7 -29,-2 -26,14c4,19 -25,27 -109,28c-63,0 -115,8 -115,16c0,8 41,15 90,15c50,0 90,7 90,15c0,8 -44,15 -98,16c-55,0 -94,-7 -89,-16c5,-9 -18,-27 -52,-42c-34,-14 -56,-32 -48,-39c8,-8 -3,-14 -23,-14c-20,0 -32,-5 -26,-11c6,-6 -17,-42 -51,-81c-34,-39 -65,-61 -69,-49c-4,12 -15,21 -25,21c-10,0 -12,-16 -5,-35c7,-19 -13,-4 -45,34c-33,38 -57,76 -54,85c3,9 -6,14 -20,11c-14,-3 -23,7 -20,21c4,15 -3,21 -15,14c-11,-7 -48,13 -80,44c-33,31 -80,57 -105,58c-25,1 -58,6 -75,10c-18,5 -32,-9 -36,-36c-4,-24 -24,-50 -45,-56c-22,-7 -53,-39 -70,-72c-17,-33 -38,-55 -47,-49c-23,14 -41,-86 -28,-152c22,-113 -12,-132 -238,-133c-113,0 -210,-2 -216,-4c-36,-13 -140,-10 -140,4c0,9 -13,16 -29,16c-16,0 -40,16 -55,36c-42,57 -155,129 -185,117c-16,-6 -32,0 -36,12c-5,14 -60,23 -141,24c-127,1 -165,-12 -109,-37c14,-6 0,-5 -30,1c-36,7 -55,3 -55,-13c0,-14 -13,-19 -31,-12c-20,7 -26,3 -17,-11c13,-21 -8,-20 -206,11c-49,8 -52,32 -4,34c26,0 37,6 23,11c-14,6 -54,1 -89,-11c-43,-15 -70,-16 -84,-2c-11,11 -50,20 -86,20c-50,0 -86,19 -148,80c-46,44 -76,80 -67,80c9,0 -1,13 -22,29c-27,21 -31,30 -11,30c16,1 23,7 16,14c-7,7 -27,1 -44,-13c-25,-21 -37,-20 -65,5c-71,61 -281,97 -455,78zm369,-223c393,-113 271,-638 -149,-640l-120,0l7,-160l6,-160l-101,0l-102,0l0,490l0,490l195,0c107,0 226,-9 264,-20zm2668,-210c75,-127 139,-230 142,-230c3,0 66,104 140,230l134,230l99,0l98,0l0,-490l0,-490l-102,0l-102,0l14,315c16,360 22,357 -145,76c-148,-250 -132,-251 -285,14l-130,225l-6,-315l-5,-315l-95,0l-94,0l0,490l0,490l100,0l100,-1l137,-229zm-1945,-55c-1,-8 -2,-55 -2,-105c0,-50 -7,-89 -15,-88c-145,23 -185,-40 -185,-292l0,-210l-90,0l-90,0l0,350l0,350l90,0c85,0 90,-3 91,-55c0,-49 3,-51 22,-18c33,57 183,114 179,68zm615,-41c210,-139 211,-469 2,-607c-194,-129 -440,-54 -541,163c-150,323 239,643 539,444zm2585,8c58,-43 58,-43 58,-3c0,35 13,41 90,41l90,0l0,-350l0,-350l-90,0c-78,0 -90,6 -90,41l0,42l-52,-41c-205,-161 -508,21 -508,306c0,286 293,468 502,314zm920,12c99,-67 114,-115 121,-409l7,-265l-95,0l-95,0l0,239c0,269 -14,301 -131,301c-127,0 -149,-46 -149,-310l0,-230l-90,0l-90,0l0,350l0,350l90,0c64,0 90,-8 90,-28c0,-22 16,-20 74,10c99,50 185,48 268,-8zm-5426,-163c2,-38 -6,-75 -17,-81c-11,-7 -19,22 -19,69c0,98 32,109 36,12zm2744,-86l0,-85l-266,0l-266,0l4,85c2,47 5,85 6,85c1,0 119,0 262,0l260,0l0,-85z" id="svg_2"/>
   <path d="m460,890l0,-150l106,0c132,0 194,48 194,149c0,96 -74,151 -203,151l-97,0l0,-150z" id="svg_3"/>
   <path d="m1730,732c-128,-128 -51,-332 126,-332c95,0 184,91 184,190c0,161 -200,252 -310,142z" id="svg_4"/>
   <path d="m4398,754c-146,-112 -69,-354 112,-354c102,0 190,88 190,190c0,143 -193,248 -302,164z" id="svg_5"/>
  </g>
  <rect fill="none" stroke="#fee304" stroke-opacity="0" x="57.12545" y="13.15284" width="18.01088" height="13.34141" id="svg_6"/>
  <rect fill="none" stroke="transparent" x="2.09211" y="6.81566" width="2.66828" height="63.03817" id="svg_7"/>
  <rect fill="none" stroke="transparent" x="0.75797" y="7.81627" width="3.33535" height="55.36686" id="svg_9"/>
  <rect fill="none" stroke="transparent" x="61.79493" y="-11.19525" width="0" height="0.33354" id="svg_10"/>
  <rect fill="none" stroke="transparent" x="2.09211" y="8.81687" width="3.33535" height="28.01697" id="svg_11"/>
  <rect fill="none" stroke="transparent" x="47.11938" y="-42.54756" width="0.33354" height="0.33354" id="svg_12"/>
  <rect fill="none" stroke="transparent" x="10.76403" y="-16.53181" width="0.33354" height="1.00061" id="svg_13"/>
  <rect fill="none" stroke="transparent" x="1.75857" y="36.16677" width="3.33535" height="6.00364" id="svg_14"/>
  <rect fill="none" stroke="transparent" x="7.09514" y="4.81445" width="0.33354" height="0" id="svg_15"/>
  <path fill="none" stroke="transparent" id="svg_16" d="m5.42746,49.17465c0,-0.33354 0,-0.66707 0,-2.33475c0,-0.66707 0,-1.66768 0,-2.00121c0,-0.33353 0,-1.00061 0,-1.33414l0,-0.33354l0,-0.33353"/>
  <polyline fill="none" stroke="transparent" points="110.82462131977081,85.86353099346161 110.49108600616455,85.86353099346161 " id="svg_17" stroke-linecap="round"/>
  <path fill="none" stroke="transparent" id="svg_18" d="m199.86016,3.48031c0,-0.33354 0.5884,-0.84027 -3.99553,-1.66768c-2.41593,-0.43608 -5.32734,-1.33414 -6.6592,-1.33414l0,-0.33354"/>
  <line fill="none" stroke="transparent" x1="190.20603" y1="2.4797" x2="201.87976" y2="2.81324" id="svg_19"/>
  <rect fill="none" stroke="transparent" x="212.21937" y="2.81324" width="18.67798" height="0" id="svg_20"/>
  <path fill="none" stroke="transparent" id="svg_21" d="m194.87552,2.14617c-194.87552,-2.14617 -194.87552,-2.14617 -194.87552,-2.14617l194.54199,2.14617l-0.33354,0l-1.00061,0"/>
  <polyline fill="none" stroke="transparent" opacity="NaN" points="200.64959612488747,1.831493005156517 200.48293755948546,1.831493005156517 199.48298616707325,1.4981758743524551 198.98301047086716,1.3315173089504242 197.81640051305294,0.6648830473423004 197.64974194765088,0.49822448194026947 197.64974194765088,0.3315659165382385 198.6496933400631,2.164810135960579 198.98301047086716,2.6647858321666718 199.1496690362692,2.8314443975687027 198.98301047086716,2.8314443975687027 198.81635190546515,2.498127266764641 197.64974194765088,1.3315173089504242 197.48308338224888,1.3315173089504242 197.48308338224888,1.1648587435483932 198.31637620925903,1.1648587435483932 199.98296186327934,1.6648344397544863 200.8162546902895,1.998151570558548 200.64959612488747,1.998151570558548 199.98296186327934,1.998151570558548 199.3163276016712,1.831493005156517 199.1496690362692,1.6648344397544863 198.81635190546515,1.4981758743524551 198.6496933400631,1.3315173089504242 199.6496447324753,2.498127266764641 200.3162789940834,3.1647615283727646 200.3162789940834,2.998102962970734 200.3162789940834,2.6647858321666718 199.8163032978773,1.6648344397544863 199.8163032978773,1.4981758743524551 202.48284034430984,1.1648587435483932 202.81615747511387,1.4981758743524551 202.14952321350572,1.831493005156517 199.1496690362692,2.164810135960579 198.81635190546515,2.164810135960579 " id="svg_22" stroke-linecap="round"/>
  <path fill="none" stroke="transparent" id="svg_23" d="m195.64984,2.83144c-1.33327,-0.49998 -1.76544,-0.91255 -3.16652,-1.16661c-0.49194,-0.08921 -0.83774,0.03829 -0.99995,0c-0.36269,-0.08562 -0.66663,-0.33332 -0.99994,-0.33332c-0.16666,0 -0.4873,-0.10288 -0.33333,-0.16666c0.21776,-0.0902 0.84598,0.4362 0.99995,0.49998c0.21774,0.0902 0.29948,0.37606 0.49998,0.49998c0.4483,0.27706 0.51265,0.26954 0.66663,0.33332c0.4355,0.18039 0.50444,0.29503 0.66664,0.33332c0.36269,0.08562 0.16666,0 0,0c-0.16666,0 -0.33333,0 -0.49998,0c-0.16666,0 -0.43094,0.06903 -0.66663,-0.16666c-0.23569,-0.23569 -0.11784,-0.71545 0,-0.83329c0.11784,-0.11784 0.87605,0.40312 1.66658,0.66663c0.15811,0.0527 0.49998,0.16667 0.49998,0c0,-0.16667 -0.33333,0 -0.49998,0c-0.49997,0 -0.84221,0.07658 -1.16661,0c-0.36269,-0.08562 -0.61781,-0.11785 -0.49997,0c0.11784,0.11784 0.52924,0.34963 0.33331,0.66663c-0.08762,0.14177 -0.28223,-0.07646 -0.49997,-0.16666c-0.15399,-0.06378 -0.57645,-0.28223 -0.66664,-0.49998c-0.06378,-0.15397 0.34206,-0.3092 1.49992,-0.16666c1.364,0.16792 1.50439,0.29503 1.6666,0.33332c0.36269,0.08562 0.49352,0.24674 0,0.16666c-0.52022,-0.08442 -0.69601,-0.41436 -0.33333,-0.49998c0.811,-0.19145 1.16298,0.0346 0.99995,0c-3.21127,-0.68148 -3.1665,-1.33327 -3.33318,-1.33327c-0.16666,0 -0.33331,0 -0.66663,0l-0.49997,0l-0.16667,0l0,0.16666"/>
  <polyline fill="none" stroke="transparent" points="178.48400692641738,77.49448169767857 178.31734836101532,77.49448169767857 178.31734836101532,77.6611402630806 " id="svg_24" stroke-linecap="round"/>
  <path fill="none" stroke="transparent" id="svg_25" d="m192.48332,0.49822c0.16666,0 1.16661,-0.16666 4.33313,-0.16666l0.16666,-0.16666"/>
  <path d="m11.63755,63.43618c0,-0.24829 -0.11775,-0.28537 -0.24829,-0.49659c-0.29188,-0.47228 -0.56931,-0.56931 -0.74487,-0.74487c-0.17557,-0.17557 -0.26719,-0.15327 -0.49658,-0.24829c-0.32441,-0.13437 -0.49658,-0.49658 -0.49658,-0.74487c0,-0.24829 -0.17195,-0.29448 -0.49658,-0.74487c-0.20531,-0.28485 -0.8176,-0.56931 -0.99317,-0.74487c-0.17557,-0.17557 -0.17217,-0.6105 -0.49658,-0.74487c-0.22939,-0.09502 -0.21173,-0.29127 -0.49658,-0.49658c-0.4504,-0.32463 -0.56931,-0.32102 -0.74487,-0.49659c-0.17557,-0.17557 -0.07272,-0.32101 -0.24829,-0.49658c-0.17557,-0.17557 -0.24829,-0.24829 -0.49658,-0.49658c-0.24829,-0.24829 -0.24829,-0.49658 -0.24829,-1.73804c0,-1.24146 0.03583,-2.21827 0.24829,-2.7312c0.60094,-1.45079 0.88756,-3.23153 0.99317,-4.71753c0.12446,-1.75127 0.74487,-3.72437 0.24829,-3.72437c-0.49658,0 -0.09657,1.03421 -1.24146,4.96582c-0.65857,2.26156 -0.99316,2.97949 -0.99316,3.22778c0,0.24829 0,0.49658 0,0.24829c0,-0.49658 0.25549,-2.73032 0.49658,-4.71753c0.51187,-4.21912 0.49658,-5.95899 0.49658,-8.4419c0,-0.49658 0,-0.74488 0,-0.24829c0,0.49658 0.76013,2.38581 0,4.22095c-0.13437,0.32441 -0.24829,0.49659 -0.24829,0.74488c0,0.24829 0,0.49658 0,0.74487c0,0.24829 0,0 0,-0.24829c0,-1.48975 -0.47508,-1.83254 0,-2.9795c0.13437,-0.32441 0.19125,0.00664 0.24829,0.24829c0.12756,0.54034 0.24829,0.74487 0.24829,1.73804c0,0.49658 0.07272,0.56931 0.24829,0.74487c0.17557,0.17557 0,0 0,-0.24829c0,-0.24829 0.24829,-0.24829 0.24829,0.24829c0,0.74487 0.17557,1.06589 0,1.24146c-0.17557,0.17557 -0.61979,0.0229 -0.74487,-0.99316c-0.03034,-0.24643 0.17114,-0.51651 0,-1.24146c-0.12756,-0.54034 -0.37081,-1.70788 -0.49658,-2.48291c-0.07954,-0.49017 0,-0.99316 0,-1.24146c0,-0.24829 0,-0.49658 0,-1.48975c0,-0.24829 0.18161,-1.50884 0.49658,-2.48291c0.41138,-1.27223 0.61979,-2.21173 0.74487,-3.22779c0.06067,-0.49286 0,-0.74487 0,-0.99316c0,-0.24829 0,-0.74487 -0.24829,-0.24829c-0.24829,0.49658 -1.30048,2.21748 -1.48975,2.9795c-0.36406,1.46576 -0.24829,2.7312 -0.24829,3.47607c0,0.24829 -0.24829,0.99316 0,0.99316c0.24829,0 0.12239,-1.79614 0.74487,-2.97949c0.41677,-0.79229 0.99316,-1.73804 0.99316,-2.23462c0,-0.49658 0,-0.74487 0,-0.99316c0,-0.24829 0.14545,-0.49658 0.49658,-0.49658c0.35114,0 0.37225,0.98285 0.49658,3.22779c0.01373,0.24791 0,2.7312 0,2.48291c0,-0.74487 0.6191,-2.94934 0.74487,-3.72437c0.07954,-0.49017 0.05705,-0.24165 0,0c-0.76535,3.24206 -2.7312,5.7107 -2.48291,5.7107c0.24829,0 -0.59908,-0.80572 0,-3.72437c0.3802,-1.85231 1.24146,-1.73804 1.24146,-1.48975c0,1.24146 0.03977,4.22415 0,4.46924c-0.12577,0.77503 -0.24829,0.49658 -0.24829,0c0,-2.7312 -0.29205,-4.5968 0.24829,-4.46924c0.24165,0.05704 0.80518,2.48616 -0.74487,2.23462c-0.24508,-0.03977 -0.24728,-0.71131 -0.49658,-3.47608c-0.06689,-0.74186 0.0874,-0.53137 0.24829,0c0.58009,1.9159 0.24829,2.23462 0.24829,2.48291l0,0.24829l0.24829,0.49658" id="svg_8" stroke="#fee304" fill="none"/>
  <polyline stroke-linecap="round" id="svg_26" points="28.024766445159912,-22.9691624045372 28.024766445159912,-22.720871195197105 " stroke="#fee304" fill="none"/>
  <path d="m11.88584,64.18105c-0.24829,0 -0.32101,-0.07272 -0.49658,-0.24829c-0.17557,-0.17557 -0.45299,-0.27259 -0.74487,-0.74487c-0.13054,-0.21121 -0.07272,-0.32102 -0.24829,-0.49659c-0.17557,-0.17557 -0.32101,-0.07272 -0.49658,-0.24829c-0.17557,-0.17557 -0.17218,-0.36221 -0.49658,-0.49658c-0.22939,-0.09502 -0.32101,-0.07272 -0.49658,-0.24829c-0.17557,-0.17557 -0.17217,-0.36221 -0.49658,-0.49658c-0.22939,-0.09502 -0.15327,-0.26719 -0.24829,-0.49658c-0.13437,-0.32441 -0.5693,-0.07272 -0.74487,-0.24829c-0.17557,-0.17557 -0.32101,-0.32101 -0.49658,-0.49658c-0.17557,-0.17557 -0.32101,-0.32101 -0.49658,-0.49658c-0.35114,-0.35114 -0.07272,-0.56931 -0.24829,-0.74487c-0.17557,-0.17557 -0.32101,-0.07272 -0.49658,-0.24829c-0.35114,-0.35114 -0.24829,-0.49659 -0.24829,-0.99317c0,-0.24829 0.09502,-0.51548 0,-0.74487c-0.13437,-0.32441 -0.24829,-0.49658 -0.24829,-1.24146c0,-1.98633 0.24829,-3.22779 0.24829,-4.71753c0,-0.49658 0.18762,-0.49286 0.24829,0c0.25017,2.03212 0.62012,2.46449 0.74487,3.72437c0.04893,0.49416 -0.0734,0.24467 0,-0.49658c0.24951,-2.51976 0.74487,-2.48291 0.74487,-2.23462c0,2.48291 0.24829,3.72437 0.24829,5.21412c0,0.74487 -0.18762,0.74115 -0.24829,0.24829c-0.25017,-2.03212 -0.49658,-2.48291 -0.49658,-2.97949c0,-0.24829 0,0.24829 0,0.49658c0,1.48975 -0.32101,1.66531 -0.49658,1.48975c-0.17557,-0.17557 -0.17778,-0.45946 -0.24829,-1.24146c-0.15767,-1.74859 0.49658,-1.73804 0.49658,-1.48975c0,1.73804 0.22783,2.08239 0.49658,2.7312c0.28505,0.68817 0,1.48975 0.24829,1.48975c0.24829,0 -0.49333,-0.18798 -0.74487,-1.73804c-0.03977,-0.24509 -0.49658,-0.74487 -0.49658,-0.99316c0,-0.24829 -0.05705,0.00664 0,0.24829c0.12756,0.54034 -0.06067,0.49286 0,0c0.62541,-5.0803 1.60608,-5.92546 2.48291,-9.18678c0.86009,-3.19902 0.74487,-5.21412 0.74487,-7.20044c0,-0.74488 0,-1.73804 0,-2.23462c0,-0.74487 0.19003,-0.95536 0,-0.49658c-0.13437,0.32441 -0.64986,1.26036 -0.74487,1.48975c-0.13437,0.32441 -0.8176,0.8176 -0.99316,0.99316c-0.17557,0.17557 -0.36221,-0.17217 -0.49658,-0.49658c-0.95017,-2.29391 0.07954,-2.72479 0,-2.23462c-0.12577,0.77503 -1.06589,5.28684 -1.24146,5.46241c-0.17557,0.17557 -0.73116,0.01541 -0.74487,-1.98633c-0.0154,-2.24832 -0.03015,-4.09843 0.74487,-3.97266c0.24508,0.03977 -0.5267,0.96304 0,1.48975c0.17557,0.17557 0.1921,0.25148 0.24829,0.74487c0.37484,3.29134 0.74487,3.72437 0.74487,3.22779c0,-0.24829 0.24829,-6.70386 0.24829,-7.20045c0,-0.49658 0.24829,-0.49658 0.24829,0l0,1.98633l0,0.24829" id="svg_27" stroke="#fee304" fill="none"/>
  <polyline stroke-linecap="round" id="svg_28" points="21.320903792977333,-19.989667892456055 21.56919500231743,-19.989667892456055 " stroke="#fee304" fill="none"/>
  <path d="m7.66489,57.97377c0,-0.24829 -0.29448,-0.42025 -0.74487,-0.74487c-0.28486,-0.20531 -0.78196,-0.86263 -0.99316,-0.99316c-0.47228,-0.29189 -0.37081,-0.27845 -0.49658,0.49658c-0.15909,0.98034 0.15328,1.26035 0.24829,1.48975c0.13437,0.32441 0.8176,1.06589 0.99317,1.24146c0.17557,0.17557 0.49658,0 0.74487,0.24829c0.24829,0.24829 0.67215,0.17557 0.49658,0c-0.17557,-0.17557 -0.32203,-0.4007 -0.99317,-0.99316c-0.41622,-0.36743 -0.76377,-0.64986 -0.99316,-0.74488c-0.32441,-0.13437 -0.99317,-0.74487 -1.24146,-0.99316c-0.24829,-0.24829 -0.51548,-0.15327 -0.74487,-0.24829c-0.32441,-0.13437 -0.24829,0 -0.24829,0.24829c0,0.49658 0.0189,0.64986 0.24829,0.74487c0.32441,0.13437 0.27259,0.70128 0.74487,0.99317c0.21121,0.13054 0.32101,0.07272 0.49658,0.24829c0.17557,0.17557 0.26468,0.21791 0.74487,0.49658c0.77429,0.44934 0.99316,0.74487 1.24146,0.74487c0.24829,0 0.07272,0.32101 0.24829,0.49658c0.17557,0.17557 0.49658,0.49658 0.49658,0.74487l0,-0.24829" id="svg_29" stroke="#fee304" fill="none"/>
  <polyline stroke-linecap="round" id="svg_30" points="31.252552166581154,90.49992026388645 31.50084337592125,90.49992026388645 " stroke="#fee304" fill="none"/>
  <path d="m5.92685,57.72548c-0.24829,0 -0.56931,-0.07272 -0.74487,-0.24829c-0.17557,-0.17557 -0.17217,-0.36221 -0.49658,-0.49658c-0.22939,-0.09502 -0.32101,-0.32101 -0.49658,-0.49658c-0.17557,-0.17557 -0.36221,-0.17217 -0.49658,-0.49658c-0.09502,-0.22939 -0.24829,-0.24829 -0.24829,-0.49658c0,-0.24829 0.49658,-0.49658 0.74487,-0.74487c0.24829,-0.24829 0.24829,-0.49658 0.24829,-0.74487c0,-0.24829 -0.07612,-0.6105 0.24829,-0.74488c0.22939,-0.09502 0.49658,0 0.49658,0.49659l0,0.24829l0.24829,0" id="svg_31" stroke="#fee304" fill="none"/>
  <path d="m41.43249,98.94182c0.49658,0 0.99316,0.24829 0.99316,0.49658l0,-0.24829" id="svg_32" stroke="#fee304" fill="none"/>
  <path d="m201.80577,4.83013c0,-0.16665 -0.2477,-0.13728 -0.33331,-0.49996c-0.07658,-0.32439 -0.30659,-0.83542 -0.3333,-0.99992c-0.08441,-0.5202 -0.04881,-0.71543 -0.16666,-0.83327c-0.11784,-0.11784 -0.21547,-0.04881 -0.33331,-0.16665c-0.11784,-0.11784 -0.16666,-0.16665 -0.3333,-0.16665c-0.16666,0 -0.21547,0.04881 -0.33331,0.16665c-0.11784,0.11784 -0.16666,0.16665 -0.33331,0.16665l0,0.16665l-0.16666,0" id="svg_33" stroke="#fee304" fill="none"/>
  <path d="m194.63966,4.49683c-0.16666,0 -0.47066,0.17713 -1.66653,-0.49996c-0.20509,-0.11612 -0.25427,-0.3582 -0.16666,-0.49996c0.19592,-0.317 0.16666,-0.16665 0,0c-0.16666,0.16665 -0.33331,0.33331 -0.49995,0.33331c-0.33331,0 -0.49997,0 -0.66663,0c-0.16664,0 0,0 0.16666,0c0.66661,0 1.83319,-0.33331 1.99985,-0.33331c0.99992,0 1.36183,-0.47136 1.83319,0c0.11784,0.11784 -0.36191,-0.30471 -0.83327,0.16665c-0.11784,0.11784 -1.49989,0.16665 -1.66653,0.16665c-0.16666,0 -0.33331,0 -0.66663,0c-0.3333,0 -0.49995,0 -0.66661,0c-0.16666,0 -0.18295,-0.13739 -0.49995,-0.33331c-0.14177,-0.08762 0,0 0.16666,0c0.49995,0 0.63724,-0.08104 0.99991,-0.16665c0.3244,-0.07658 0.99214,-0.08317 2.33316,-0.16665c0.33266,-0.02071 1.04874,0.04882 1.16656,0.16665c0.23569,0.23568 0.09343,0.52861 0,0.66661c-0.50314,0.74315 -0.99991,0.33331 -1.16656,0.33331l0,0.16665l0.16666,0l0.49995,0" id="svg_34" stroke="#fee304" fill="none"/>
  <path d="m183.30722,-9.83538c0.16666,0.33331 1.04047,0.36319 3.49973,1.16657c3.05949,0.99946 4.9996,1.66654 5.66621,1.83319l0.16666,0" id="svg_35" stroke="#fee304" fill="none"/>
  <path d="m201.97243,5.99671c0,-0.16665 0,-0.33331 0,-0.49996c0,-0.33331 -0.04881,-0.38212 -0.16666,-0.49996c-0.11784,-0.11784 -0.16666,-0.16665 -0.16666,-0.33331c0,-0.16665 -0.19836,-0.48022 -0.49995,-0.99992c-0.18704,-0.32231 -0.16666,-0.49996 -0.33331,-0.49996c-0.33331,0 -0.46844,0.00301 -0.49995,0.16665c-0.16972,0.88127 -0.33331,0.99992 -0.16666,1.16658c0.16666,0.16665 0.1622,0.03829 0,0c-1.45073,-0.34247 -2.83311,-0.99992 -3.99969,-0.99992c-0.3333,0 -0.49995,0.16665 -0.49995,0.33331c0,0.16665 0.11867,0.33025 0.99992,0.49996c0.32729,0.06303 0.66661,0.16665 0.99992,0.16665c0.3333,0 0.83327,0 1.16656,0c0.33331,0 0.54878,0.11783 0.66661,0c0.11784,-0.11784 0.06377,-0.34599 0,-0.49996c-0.09018,-0.21774 -0.21545,-0.21546 -0.3333,-0.33331c-0.11784,-0.11784 -0.04881,-0.21546 -0.16666,-0.33331c-0.11784,-0.11784 -0.16666,-0.33331 -0.33331,-0.33331c-0.16664,0 -0.3333,0 -0.66661,0c-0.16666,0 -0.3333,0 -0.16666,0c0.16666,0 0.63541,0.20112 0.99992,0.49996c0.46469,0.38096 0.61552,0.57642 0.83327,0.66661c0.15398,0.06378 0.33331,0 0.49997,0c0.16666,0 0.17934,0.10288 0.3333,0.16665c0.21774,0.09019 0.33331,0.16665 0.49997,0.16665l0.16666,0" id="svg_36" stroke="#fee304" fill="none"/>
  <polyline stroke-linecap="round" id="svg_37" points="206.13876202702522,-9.335423052310944 206.13876202702522,-9.16876944899559 " stroke="#fee304" fill="none"/>
  <path d="m199.97258,3.33025c0,-0.16665 -0.16666,-0.16665 -0.16666,-0.33331l-0.16666,0l0,-0.16665" id="svg_38" stroke="#fee304" fill="none"/>
  <polyline stroke-linecap="round" id="svg_39" points="178.6409174799919,-10.002037465572357 178.47426387667656,-10.002037465572357 " stroke="#fee304" fill="none"/>
  <path d="m199.30597,2.33033c0.16664,0 0.45114,0.04881 0.3333,0.16665c-0.11784,0.11784 -0.3333,0 -0.49995,0c-0.16666,0 -0.83327,0.16665 -0.99992,0.16665c-0.16666,0 -0.33331,0 -0.66661,0c-0.16666,0 -0.33331,0 -0.49997,0l-0.16664,0l-0.16666,0l-0.33331,0" id="svg_40" stroke="#fee304" fill="none"/>
  <path d="m82.98175,-11.00196c0.33331,0 1.51131,-0.20441 3.33307,0c3.73643,0.41925 7.49941,1.66654 11.33244,1.83319l1.49989,0l0.66662,0l0.16665,-0.16665" id="svg_41" stroke="#fee304" fill="none"/>
  <path d="m5.98778,57.99263c-0.16665,0 -0.34599,0.06378 -0.49996,0c-0.21774,-0.09019 -0.38212,-0.21547 -0.49996,-0.33331c-0.11784,-0.11784 -0.48727,-0.26953 -0.33331,-0.33331c0.21774,-0.09019 0.11556,0.40977 0.33331,0.49996c0.15397,0.06377 0.16665,0.16666 0.16665,0c0,-0.33331 0,-0.83327 0,-0.99992c0,-0.33331 0.47137,-1.02851 0,-1.49988c-0.11784,-0.11784 -0.17934,-0.10287 -0.33331,-0.16665c-0.21774,-0.09019 -0.11556,-0.40977 -0.33331,-0.49996c-0.15397,-0.06377 -0.38212,-0.11784 -0.49996,0c-0.11784,0.11784 -0.19647,0.71639 0.33331,0.99992c0.14693,0.07864 0.16665,0.16666 0.66661,0.16666l0,-0.16666" id="svg_42" stroke="#fee304" fill="none"/>
  <polyline stroke-linecap="round" id="svg_43" points="19.82002979516983,-13.001802325248718 19.82002979516983,-12.835148721933365 " stroke="#fee304" fill="none"/>
  <path d="m6.15443,29.82817c-0.16665,0 -0.08334,-0.33108 0,-4.99961c0.0238,-1.33302 0.99992,-3.33307 0,-3.33307c-0.16665,0 -0.33217,0.62526 -0.66661,4.6663c-0.01375,0.16608 -0.17934,2.06362 -0.33331,1.99984c-0.21774,-0.09019 -0.19415,-1.50102 -0.16665,-1.83319c0.08361,-1.01026 0.3647,-1.49049 0.49996,-1.99984c0.21811,-0.8213 0.5822,-3.47949 0.66661,-3.99969c0.10678,-0.65801 -0.19145,-1.52217 0,-2.33315c0.08562,-0.36268 0.13901,-1.33399 0.16665,-1.83319c0.08345,-1.5068 0.1409,-1.16591 0.16665,-0.66661c0.25031,4.85229 0.60024,6.18075 0.33331,7.66607c-0.12154,0.6763 -0.12836,0.82881 -0.16665,0.66661c-0.08562,-0.36268 -0.08336,-3.3294 0,-6.16618c0.01958,-0.66633 0.16665,-1.49988 0.16665,-1.83319c0,-0.16665 0,-0.33331 0,-0.99992c0,-0.66661 0.24957,-0.98756 0.33331,-1.83319c0.01642,-0.16584 0,-0.49996 0,-0.66661c0,-0.16665 0,-0.33331 0,-0.49996c0,-0.16665 -0.16665,-0.16665 -0.16665,-0.33331c0,-0.16665 -0.11556,-0.24312 -0.33331,-0.33331c-0.15397,-0.06378 -0.38212,-0.2845 -0.49996,-0.16665c-0.11784,0.11784 0.22917,0.43825 -0.16665,0.99992c-0.34614,0.49117 -0.49996,0.66661 -0.49996,1.66654c0,0.66661 -0.10138,2.1693 0,3.99969c0.08345,1.50681 0.16665,1.66654 0.16665,1.83319c0,0.16665 0,0.99992 0,1.49988c0,0.49996 0,0.66661 0,0.83327c0,0.49996 0,0.66661 0,0.83327c0,0.16665 -0.21547,0.28449 -0.33331,0.16665c-0.82489,-0.82489 0.31721,-4.33581 0.49996,-5.33291c0.45959,-2.50754 0.44872,-2.69746 0.66661,-2.99977c0.27561,-0.38239 0.41554,-0.47972 0.49996,-0.99992c0.02669,-0.1645 0.02669,-0.33546 0,-0.49996c-0.08442,-0.5202 -0.16665,-0.83327 -0.33331,-0.83327c-0.16665,0 -0.12593,0.16915 -0.16665,0.49996c-0.08396,0.68198 -0.33331,0.99992 -0.33331,1.49988c0,0.33331 0,0.16665 0,0c0,-0.33331 0.07646,-0.21774 0.16665,0c0.57398,1.38571 0,2.33315 0,3.66638c0,0.66661 0,1.66654 0,2.83311c0,1.83319 0,2.99977 0,4.99961c0,0.99992 0.41623,2.82075 0.49996,3.66638c0.03284,0.33169 -0.03837,0.16592 0,-0.83327c0.08339,-2.1713 -0.32042,-3.47279 0.33331,-4.83295c0.1021,-0.21242 0.38637,-0.26758 1.33323,-3.83303c0.43622,-1.6426 0.49996,-2.33315 0.49996,-2.1665c0,0.49996 0.16665,2.66646 0.16665,3.16642c0,3.49973 0,4.49965 -0.33331,8.9993l0,0.49996" id="svg_44" stroke="#fee304" fill="none"/>
  <polyline stroke-linecap="round" id="svg_45" points="-11.344194024801254,1.830368369817734 -11.344194024801254,2.1636755764484406 " stroke="#fee304" fill="none"/>
  <polyline stroke-linecap="round" id="svg_46" points="-12.177462041378023,-7.668887019157409 -12.177462041378023,-7.835540622472763 " stroke="#fee304" fill="none"/>
  <path d="m5.82113,11.66293c0,-0.16665 0.08224,-0.31307 0.16665,-0.83327c0.02669,-0.1645 0,-0.33331 -0.16665,-0.33331c-0.16665,0 -0.40977,-0.05109 -0.49996,0.16665c-0.06378,0.15397 0,0.33331 0,0.66661c0,0.16665 0,0.49996 0,0.83327c0,0.33331 -0.16665,0.49996 -0.16665,0.66661c0,0.33331 0.11784,0.54877 0,0.66661c-0.11784,0.11784 -0.33331,0 -0.33331,-0.16665c0,-0.33331 -0.16665,-0.66661 -0.16665,-0.99992c0,-0.33331 0,-0.49996 0,-0.66661c0,-0.16665 0,-0.33331 0,-0.49996c0,-0.16665 0.16665,-0.16665 0.33331,-0.16665l0.16665,0l0,0.16665" id="svg_47" stroke="#fee304" fill="none"/>
  <polyline stroke-linecap="round" id="svg_48" points="14.487114489078522,-6.668965399265288 14.487114489078522,-6.502311795949937 14.487114489078522,-6.3356581926345825 " stroke="#fee304" fill="none"/>
 </g>
</svg>