<?xml version="1.0" standalone="no"?>
<!DOCTYPE svg PUBLIC "-//W3C//DTD SVG 20010904//EN"
 "http://www.w3.org/TR/2001/REC-SVG-20010904/DTD/svg10.dtd">
<svg version="1.0" xmlns="http://www.w3.org/2000/svg"
 width="300.000000pt" height="72.000000pt" viewBox="0 0 300.000000 72.000000"
 preserveAspectRatio="xMidYMid meet">
<metadata>
Created by potrace 1.10, written by Peter Selinger 2001-2011
</metadata>
<g transform="translate(0.000000,72.000000) scale(0.100000,-0.100000)"
fill="#fee304" stroke="none">
<path d="M0 360 l0 -360 1500 0 1500 0 0 360 0 360 -1500 0 -1500 0 0 -360z
m389 322 c36 -19 46 -21 59 -10 11 9 14 9 9 1 -5 -8 11 -32 41 -63 48 -49 82
-64 82 -35 0 12 17 15 90 15 l90 0 0 -35 c0 -30 3 -35 23 -35 13 0 32 6 42 14
11 8 26 11 34 8 9 -3 12 -1 7 6 -5 9 11 12 58 12 36 0 68 -5 71 -10 3 -5 14
-10 25 -10 10 0 44 -20 77 -44 l58 -43 130 5 c72 2 138 9 148 14 13 7 17 21
17 63 0 39 5 60 18 73 9 9 34 37 54 61 32 38 40 42 67 36 41 -9 123 -70 151
-113 13 -20 19 -22 43 -13 15 6 36 24 45 41 9 16 23 30 30 30 6 0 12 3 12 8 0
18 64 42 108 41 30 -1 37 -4 20 -6 -16 -2 -28 -9 -28 -15 0 -6 13 -8 30 -6 17
3 30 1 30 -3 0 -4 11 -20 25 -35 14 -15 30 -44 35 -65 13 -46 23 -54 52 -37
13 6 30 14 38 16 24 7 251 8 232 1 -27 -10 62 -31 95 -23 15 4 34 13 41 21 17
16 76 18 66 1 -5 -8 0 -9 17 -4 13 5 51 10 85 13 l60 5 62 -51 c34 -28 66 -60
72 -70 18 -34 31 -163 24 -240 -6 -64 -11 -80 -34 -101 -60 -57 -69 -61 -107
-51 -19 6 -43 17 -52 26 -29 26 -75 25 -100 -1 -26 -27 -68 -31 -120 -13 -25
9 -40 8 -71 -5 -47 -18 -290 -24 -290 -6 0 6 -8 10 -19 10 -10 0 -24 7 -31 15
-16 20 -54 19 -71 -1 -40 -48 -115 -36 -183 31 -25 24 -46 50 -47 57 0 7 -4 4
-8 -7 -8 -20 -50 -28 -62 -12 -3 5 -27 -14 -53 -41 -38 -40 -55 -51 -89 -55
-33 -5 -46 -2 -63 14 -11 10 -25 19 -31 19 -14 0 -47 49 -53 80 -6 30 -50 56
-76 46 -10 -5 -53 -7 -96 -6 -75 1 -77 1 -111 -34 -20 -19 -39 -42 -44 -49
-14 -24 -118 -77 -151 -77 -17 0 -34 -5 -38 -11 -4 -8 -9 -8 -17 0 -6 6 -23
11 -38 11 -16 0 -55 19 -93 45 -66 45 -82 53 -72 36 4 -5 -4 -7 -16 -4 -13 3
-20 2 -16 -2 12 -13 -64 -64 -95 -65 -32 0 -68 16 -80 36 -4 8 -14 14 -22 14
-8 0 -18 21 -26 56 l-13 56 -35 -7 c-61 -11 -71 -16 -77 -41 -3 -13 -10 -21
-15 -18 -5 3 -12 -3 -16 -13 -4 -10 -22 -33 -40 -51 -48 -45 -94 -44 -156 4
-35 27 -50 47 -58 78 -15 54 -5 200 17 255 14 35 16 62 11 145 -3 56 -3 107 1
112 18 28 51 34 157 32 92 -3 117 -7 154 -26z"/>
<path d="M140 360 l0 -250 50 0 50 0 0 85 0 85 55 0 c162 0 254 170 150 275
-44 44 -87 55 -207 55 l-98 0 0 -250z m228 124 c46 -53 4 -114 -79 -114 l-49
0 0 76 0 77 53 -6 c39 -5 58 -13 75 -33z"/>
<path d="M1530 360 l0 -250 50 0 49 0 3 158 3 157 49 -85 c56 -96 74 -120 91
-120 7 0 38 43 69 95 31 52 59 95 62 95 3 0 4 -66 3 -147 l-1 -148 51 -3 51
-3 0 251 0 251 -52 -3 -52 -3 -67 -113 -66 -113 -69 115 -69 116 -52 0 -53 0
0 -250z"/>
<path d="M865 461 c-104 -48 -142 -149 -94 -249 45 -93 164 -130 254 -79 131
74 119 265 -20 328 -51 23 -89 23 -140 0z m129 -99 c65 -58 21 -162 -68 -162
-42 0 -78 40 -80 87 -2 84 87 129 148 75z"/>
<path d="M2181 462 c-19 -9 -48 -34 -65 -55 -26 -32 -31 -48 -34 -105 -3 -60
0 -72 26 -113 17 -26 44 -53 65 -62 49 -24 118 -22 150 3 30 24 37 25 37 6 0
-14 29 -26 68 -26 l22 0 0 180 0 180 -45 0 c-33 0 -45 -4 -45 -15 0 -19 -3
-19 -47 5 -46 25 -87 25 -132 2z m120 -88 c17 -8 37 -30 45 -49 37 -88 -70
-164 -143 -101 -23 20 -28 32 -28 71 0 39 5 51 28 71 33 28 56 30 98 8z"/>
<path d="M2661 464 c-24 -10 -38 -11 -45 -4 -5 5 -27 10 -48 10 l-38 0 0 -180
0 -180 45 0 45 0 0 104 c0 115 8 149 40 166 27 14 76 4 86 -18 4 -9 9 -70 12
-135 l4 -117 43 0 c23 0 44 2 46 4 2 2 1 67 -2 144 -6 156 -14 178 -72 206
-43 20 -71 20 -116 0z"/>
<path d="M540 291 l0 -181 44 0 44 0 4 109 c4 122 17 151 70 151 27 0 28 2 28
45 0 43 -2 45 -28 45 -15 0 -38 -7 -50 -16 -20 -14 -22 -14 -22 0 0 9 -6 16
-14 16 -7 0 -28 3 -45 6 l-31 7 0 -182z"/>
<path d="M1180 330 l0 -40 135 0 135 0 0 40 0 40 -135 0 -135 0 0 -40z"/>
</g>
</svg>
