<?xml version="1.0" standalone="no"?>
<!DOCTYPE svg PUBLIC "-//W3C//DTD SVG 20010904//EN"
 "http://www.w3.org/TR/2001/REC-SVG-20010904/DTD/svg10.dtd">
<svg version="1.0" xmlns="http://www.w3.org/2000/svg"
 width="123.000000pt" height="70.000000pt" viewBox="0 0 123.000000 70.000000"
 preserveAspectRatio="xMidYMid meet">
<metadata>
Created by potrace 1.10, written by Peter Selinger 2001-2011
</metadata>
<g transform="translate(0.000000,70.000000) scale(0.100000,-0.100000)"
fill="#1976d2" stroke="none">
<path d="M697 580 c-55 -17 -72 -53 -47 -100 7 -13 6 -19 -5 -24 -20 -7 -18
-26 5 -56 28 -36 25 -40 -28 -33 -50 6 -66 -3 -74 -42 -5 -21 -8 -17 -23 30
-6 21 -71 20 -79 -1 -3 -9 -6 -53 -6 -99 0 -74 2 -86 20 -95 31 -16 70 -2 70
25 0 13 5 27 10 30 6 3 10 -4 10 -18 0 -33 24 -51 57 -43 35 9 39 9 89 0 56
-9 106 15 122 59 21 59 11 106 -30 135 -18 13 -18 14 7 33 23 19 25 27 24 95
-1 65 -4 77 -22 89 -31 19 -67 25 -100 15z m100 -36 c7 -10 13 -21 13 -26 0
-14 -51 -9 -67 7 -8 8 -19 13 -24 10 -17 -11 -9 -25 19 -31 48 -11 72 -32 72
-63 0 -39 -24 -56 -82 -56 -50 0 -78 19 -78 52 0 19 47 16 58 -3 10 -18 43
-16 49 3 3 7 -8 15 -24 19 -46 11 -73 32 -73 59 0 35 36 57 85 51 21 -2 45
-13 52 -22z m-12 -214 c38 -31 24 -128 -21 -149 -39 -18 -85 -13 -111 11 l-23
21 0 -21 c0 -18 -6 -22 -30 -22 -28 0 -30 2 -30 40 0 38 -2 40 -30 40 -28 0
-30 -2 -30 -40 0 -36 -2 -40 -25 -40 -25 0 -25 1 -25 90 l0 90 28 0 c26 0 28
-3 24 -30 -4 -28 -2 -30 27 -30 28 0 31 3 31 30 0 27 3 30 30 30 24 0 30 -4
30 -22 l0 -22 15 21 c8 12 25 23 38 25 29 5 84 -7 102 -22z"/>
<path d="M687 304 c-13 -13 -7 -71 9 -85 26 -21 49 1 49 47 0 34 -3 39 -25 42
-14 2 -29 0 -33 -4z m43 -39 c0 -14 -6 -25 -14 -25 -8 0 -12 9 -11 23 3 27 3
27 15 27 6 0 10 -11 10 -25z"/>
<path d="M82 568 c-17 -17 -16 -173 2 -190 11 -12 11 -17 0 -33 -17 -22 -18
-71 -3 -80 6 -5 4 -12 -8 -20 -17 -13 -17 -16 -3 -42 22 -39 57 -55 105 -47
47 7 65 7 123 -2 31 -4 49 -2 68 10 35 23 51 61 34 81 -15 18 -67 20 -72 3 -7
-21 -37 -1 -31 21 5 21 33 30 33 11 0 -5 13 -10 30 -10 40 0 55 28 33 61 -24
34 -33 39 -80 39 -32 0 -41 3 -37 14 3 8 -2 28 -11 45 -11 23 -13 36 -5 50 16
30 12 59 -10 81 -16 16 -33 20 -88 20 -40 0 -73 -5 -80 -12z m152 -17 c25 -21
21 -70 -6 -81 -13 -5 -18 -9 -11 -9 9 -1 53 -63 53 -77 0 -2 -13 -4 -30 -4
-24 0 -35 8 -57 43 l-28 42 -3 -42 c-3 -39 -5 -42 -33 -41 l-29 1 0 93 0 93
64 -2 c35 -1 70 -8 80 -16z m-15 -216 c13 -13 17 -12 33 2 27 24 93 22 119 -4
12 -12 18 -26 15 -32 -9 -14 -43 -14 -51 -1 -3 6 -15 10 -25 10 -44 0 -45 -92
-2 -98 17 -3 25 2 29 18 4 13 11 19 20 16 8 -3 19 -6 24 -6 16 0 10 -29 -11
-50 -24 -24 -87 -27 -115 -6 -17 12 -22 12 -39 0 -30 -21 -92 -18 -116 6 -11
11 -20 24 -20 29 0 17 45 16 62 -1 18 -18 52 -14 45 6 -2 6 -23 18 -46 26 -50
18 -67 41 -51 70 21 39 96 48 129 15z"/>
<path d="M150 510 c0 -16 5 -21 23 -18 12 2 22 10 22 18 0 8 -10 16 -22 18
-18 3 -23 -2 -23 -18z"/>
<path d="M142 309 c2 -6 20 -17 41 -24 31 -11 37 -10 37 1 0 8 -9 14 -20 14
-11 0 -20 5 -20 10 0 6 -9 10 -21 10 -11 0 -19 -5 -17 -11z"/>
<path d="M923 541 c-50 -9 -47 -6 -67 -55 -14 -35 -15 -41 -1 -60 41 -58 42
-59 90 -51 43 6 48 10 66 51 l20 45 -31 39 c-18 22 -32 39 -33 39 -1 -1 -21
-5 -44 -8z m23 -20 c5 -5 18 -11 28 -13 16 -2 21 -13 23 -46 2 -30 -1 -42 -11
-42 -7 0 -20 -10 -28 -21 -13 -20 -15 -21 -30 -5 -9 9 -21 16 -25 15 -27 -5
-35 2 -29 25 3 14 1 28 -5 32 -7 4 -1 16 17 34 31 30 45 35 60 21z"/>
<path d="M919 518 c0 -2 -2 -18 -4 -36 -2 -19 -11 -39 -21 -46 -12 -9 -14 -15
-5 -20 6 -4 14 0 17 8 3 9 10 16 16 16 5 0 7 -4 4 -9 -3 -4 1 -16 8 -26 12
-16 13 -16 19 -1 4 10 1 16 -9 16 -8 0 -12 5 -9 10 4 6 11 7 17 4 6 -4 8 -2 4
4 -3 6 -2 13 4 17 5 3 15 15 20 26 9 15 7 19 -6 19 -11 0 -14 -5 -10 -16 5
-12 2 -15 -10 -10 -8 3 -21 6 -27 6 -8 0 -7 4 1 12 15 15 16 28 2 28 -5 0 -10
-1 -11 -2z m31 -58 c0 -5 -7 -10 -15 -10 -8 0 -15 5 -15 10 0 6 7 10 15 10 8
0 15 -4 15 -10z"/>
<path d="M877 484 c-8 -8 1 -24 14 -24 5 0 9 7 9 15 0 15 -12 20 -23 9z"/>
<path d="M970 440 c0 -5 5 -10 10 -10 6 0 10 5 10 10 0 6 -4 10 -10 10 -5 0
-10 -4 -10 -10z"/>
<path d="M977 358 c2 -5 11 -8 19 -8 7 0 19 -9 26 -20 7 -11 16 -20 19 -20 4
0 5 9 2 20 -5 17 0 20 26 20 l31 0 0 -68 0 -67 45 3 c43 4 45 3 45 -22 0 -26
-1 -26 -76 -26 l-76 0 7 27 7 28 -26 -28 c-49 -52 -146 -26 -161 44 -9 40 11
86 44 104 15 8 20 14 11 15 -28 0 -59 -30 -71 -68 -23 -78 40 -151 120 -138
41 7 41 7 134 0 77 -6 97 3 97 46 0 29 -15 40 -56 40 -22 0 -24 4 -24 43 0 84
-4 88 -80 85 -38 -2 -66 -6 -63 -10z"/>
<path d="M924 286 c-8 -33 -2 -57 18 -69 26 -17 50 9 46 52 -3 31 -7 36 -30
39 -22 3 -29 -2 -34 -22z m46 -26 c0 -22 -4 -28 -15 -24 -15 6 -20 35 -8 47
14 15 23 6 23 -23z"/>
</g>
</svg>
