<?xml version="1.0" standalone="no"?>
<!DOCTYPE svg PUBLIC "-//W3C//DTD SVG 20010904//EN"
 "http://www.w3.org/TR/2001/REC-SVG-20010904/DTD/svg10.dtd">
<svg version="1.0" xmlns="http://www.w3.org/2000/svg"
 width="115.000000pt" height="44.000000pt" viewBox="0 0 115.000000 44.000000"
 preserveAspectRatio="xMidYMid meet">
<metadata>
Created by potrace 1.10, written by Peter Selinger 2001-2011
</metadata>
<g transform="translate(0.000000,44.000000) scale(0.100000,-0.100000)"
fill="#1976d2" stroke="none">
<path d="M65 433 c-22 -3 -43 -10 -47 -16 -4 -7 -8 -49 -8 -93 0 -60 4 -85 15
-94 12 -10 12 -15 -1 -35 -8 -13 -14 -40 -13 -61 1 -22 -1 -46 -5 -55 -4 -9 2
-26 14 -42 25 -31 81 -45 123 -29 22 8 41 8 71 0 52 -14 92 -2 120 35 16 22
18 32 10 45 -15 24 -48 26 -78 6 -14 -9 -26 -12 -27 -8 0 5 -2 17 -4 27 -4 23
20 33 40 17 15 -12 55 -5 66 12 21 33 -32 78 -91 78 -20 0 -30 5 -30 15 0 9
-7 29 -15 45 -12 23 -13 34 -4 54 14 30 5 72 -19 85 -25 13 -71 18 -117 14z
m110 -33 c24 -20 19 -69 -7 -80 -13 -5 -18 -9 -11 -9 9 -1 53 -63 53 -77 0 -2
-15 -4 -34 -4 -28 0 -36 5 -46 30 -7 16 -18 35 -26 41 -12 9 -14 4 -14 -29 0
-39 -1 -41 -30 -40 l-30 1 0 94 0 94 65 -4 c36 -3 72 -10 80 -17z m-55 -165
c0 -8 -4 -15 -10 -15 -5 0 -7 7 -4 15 4 8 8 15 10 15 2 0 4 -7 4 -15z m41 -51
c10 -12 15 -12 31 3 26 24 90 23 117 -1 12 -11 21 -23 21 -28 0 -16 -31 -21
-55 -8 -39 21 -57 7 -53 -42 3 -36 7 -44 26 -46 17 -3 25 2 29 18 4 13 11 19
20 16 8 -3 19 -6 24 -6 16 0 10 -29 -11 -50 -24 -24 -87 -27 -115 -6 -17 12
-22 12 -39 0 -30 -21 -92 -18 -116 6 -11 11 -20 24 -20 29 0 17 45 16 62 -1
18 -18 52 -14 45 6 -2 6 -23 18 -46 26 -54 19 -68 42 -47 75 23 35 101 40 127
9z"/>
<path d="M90 360 c0 -16 5 -21 23 -18 12 2 22 10 22 18 0 8 -10 16 -22 18 -18
3 -23 -2 -23 -18z"/>
<path d="M82 159 c2 -6 20 -17 40 -24 31 -10 38 -10 42 1 4 10 -2 14 -19 14
-13 0 -27 5 -30 10 -8 14 -38 13 -33 -1z"/>
<path d="M623 426 c-34 -16 -50 -50 -38 -85 3 -11 1 -30 -5 -42 -10 -18 -8
-26 8 -49 26 -34 21 -39 -29 -33 -43 6 -69 -8 -69 -38 0 -30 -18 -22 -22 9 -3
23 -8 27 -39 30 -45 4 -48 -4 -50 -109 -1 -85 8 -107 43 -105 34 2 48 14 48
42 0 34 16 30 23 -5 7 -34 33 -46 70 -32 17 7 35 6 55 -1 67 -26 152 30 152
100 0 25 -38 102 -51 102 -4 0 6 14 23 30 25 26 29 35 22 63 -4 17 -6 46 -5
63 3 57 -70 89 -136 60z m114 -32 c7 -10 13 -21 13 -26 0 -14 -51 -9 -67 7 -8
8 -19 13 -24 10 -17 -11 -9 -23 19 -30 47 -11 72 -33 72 -64 0 -39 -24 -56
-82 -56 -50 0 -78 19 -78 52 0 19 47 16 58 -3 10 -18 43 -16 49 3 3 7 -8 15
-24 19 -46 11 -73 32 -73 59 0 35 36 57 85 51 21 -2 45 -13 52 -22z m-25 -205
c45 -24 50 -99 9 -140 -36 -36 -86 -39 -125 -8 l-26 20 0 -20 c0 -17 -6 -21
-30 -21 -28 0 -30 2 -30 40 0 38 -2 40 -30 40 -28 0 -30 -2 -30 -40 0 -36 -2
-40 -25 -40 -25 0 -25 1 -25 90 l0 90 28 0 c26 0 28 -3 24 -30 -4 -28 -2 -30
30 -30 33 0 34 2 30 30 -4 28 -2 30 27 30 25 0 31 -4 31 -22 l0 -22 15 21 c22
31 81 37 127 12z"/>
<path d="M627 154 c-13 -13 -7 -71 9 -85 26 -21 49 1 49 47 0 34 -3 39 -25 42
-14 2 -29 0 -33 -4z m41 -39 c-3 -27 -23 -31 -24 -5 -1 20 5 30 17 30 6 0 9
-11 7 -25z"/>
<path d="M863 391 c-50 -9 -47 -6 -67 -55 -14 -35 -15 -41 -1 -60 33 -48 44
-56 70 -56 l29 0 -22 20 c-12 11 -25 20 -29 19 -27 -4 -35 2 -29 25 3 14 1 28
-5 32 -7 4 1 17 22 36 26 24 36 28 53 20 12 -6 28 -12 36 -15 21 -6 25 -87 5
-87 -8 0 -19 -9 -25 -20 -9 -17 -8 -20 10 -20 15 0 26 12 40 46 l20 46 -31 39
c-17 21 -31 38 -32 38 -1 -1 -21 -5 -44 -8z"/>
<path d="M859 368 c0 -2 -2 -18 -4 -36 -2 -19 -11 -39 -21 -46 -12 -9 -14 -15
-5 -20 6 -4 14 0 17 8 3 9 10 16 16 16 5 0 7 -4 4 -9 -3 -4 1 -16 8 -26 12
-16 13 -16 19 -1 4 10 1 16 -9 16 -8 0 -12 5 -9 10 4 6 11 7 17 4 6 -4 8 -2 4
4 -3 6 -2 13 4 17 5 3 15 15 20 26 9 15 7 19 -6 19 -11 0 -14 -5 -10 -16 5
-12 2 -15 -10 -10 -8 3 -21 6 -27 6 -8 0 -7 4 1 12 15 15 16 28 2 28 -5 0 -10
-1 -11 -2z m22 -61 c-1 -12 -15 -9 -19 4 -3 6 1 10 8 8 6 -3 11 -8 11 -12z"/>
<path d="M817 334 c-8 -8 1 -24 14 -24 5 0 9 7 9 15 0 15 -12 20 -23 9z"/>
<path d="M910 290 c0 -5 5 -10 10 -10 6 0 10 5 10 10 0 6 -4 10 -10 10 -5 0
-10 -4 -10 -10z"/>
<path d="M930 202 c17 -7 33 -19 36 -27 9 -22 23 -18 17 5 -5 17 0 20 26 20
l31 0 0 -68 0 -67 45 3 c43 4 45 3 45 -22 0 -26 -1 -26 -76 -26 l-76 0 7 27 7
28 -26 -28 c-49 -52 -146 -26 -161 44 -9 40 11 86 44 104 14 8 20 14 13 15
-38 1 -82 -54 -82 -102 0 -68 83 -123 153 -101 18 5 41 6 52 2 31 -12 128 -10
145 4 16 12 19 45 6 66 -4 6 -23 11 -42 11 l-34 0 0 54 c0 31 -5 58 -12 64 -7
5 -44 9 -81 8 -66 -1 -67 -2 -37 -14z"/>
<path d="M866 145 c-18 -49 5 -92 44 -80 18 6 21 13 18 48 -3 37 -6 42 -29 45
-17 2 -29 -3 -33 -13z m44 -35 c0 -16 -4 -30 -9 -30 -12 0 -24 37 -16 50 12
20 25 10 25 -20z"/>
</g>
</svg>
