<?xml version="1.0" standalone="no"?>
<!DOCTYPE svg PUBLIC "-//W3C//DTD SVG 20010904//EN"
 "http://www.w3.org/TR/2001/REC-SVG-20010904/DTD/svg10.dtd">
<svg version="1.0" xmlns="http://www.w3.org/2000/svg"
 width="130" height="130" viewBox="0 0 384.000000 384.000000"
 preserveAspectRatio="xMidYMid meet">
<metadata>
Created by potrace 1.10, written by Peter Selinger 2001-2011
</metadata>
<g transform="translate(0.000000,384.000000) scale(0.100000,-0.100000)"
fill="#1976d2" stroke="none">
<path d="M435 2700 c-3 -5 -14 -10 -23 -10 -21 -1 -72 -44 -72 -62 0 -8 -7
-23 -15 -35 -12 -18 -15 -42 -11 -113 2 -49 0 -92 -4 -95 -5 -3 -6 -20 -3 -38
2 -17 0 -66 -6 -107 -5 -41 -6 -79 -2 -85 5 -5 12 -21 16 -35 4 -14 19 -43 34
-65 31 -47 29 -72 -6 -86 -17 -6 -23 -14 -19 -25 3 -8 -3 -31 -14 -52 -30 -56
-26 -111 11 -158 32 -40 33 -80 3 -97 -8 -4 -14 -14 -14 -22 0 -8 -9 -23 -21
-34 l-21 -19 28 -51 c21 -37 35 -51 50 -51 14 0 24 -8 28 -23 7 -31 69 -64
141 -75 63 -10 182 -1 230 18 68 28 98 30 130 10 38 -23 164 -44 215 -36 52 8
190 75 190 92 0 7 14 27 30 44 17 17 30 41 30 55 0 13 5 36 10 51 13 32 -3 56
-34 52 -17 -2 -20 -9 -18 -36 5 -46 -40 -113 -95 -143 -24 -13 -43 -27 -43
-31 0 -5 -53 -8 -118 -8 l-117 0 -52 45 c-58 51 -68 54 -83 25 -6 -11 -29 -31
-50 -45 -36 -23 -49 -25 -159 -25 -112 0 -122 2 -160 27 -23 15 -41 34 -41 45
0 10 -9 26 -20 35 -29 25 -27 81 3 92 31 12 130 -3 136 -20 11 -34 60 -69 96
-69 53 0 75 15 75 51 0 25 -6 33 -35 45 -19 8 -58 19 -87 25 -29 6 -66 19 -83
28 -16 9 -41 18 -54 21 -20 4 -27 15 -38 55 -17 63 -8 142 17 155 10 5 20 20
23 32 5 20 14 23 57 25 28 2 59 7 69 13 22 11 141 -5 192 -26 23 -10 42 -28
52 -50 20 -41 31 -43 52 -6 37 61 194 99 304 72 61 -14 138 -83 151 -134 3
-12 14 -22 24 -24 36 -7 37 14 2 84 -39 80 -88 119 -176 140 -53 12 -182 6
-197 -10 -4 -3 -14 1 -23 9 -11 10 -49 18 -110 23 l-94 7 -46 93 c-52 103 -80
138 -104 129 -14 -6 -15 -20 -10 -104 6 -84 4 -100 -9 -112 -20 -16 -154 -24
-163 -9 -9 14 -6 550 3 559 4 4 26 4 48 -1 22 -5 101 -10 175 -10 215 -1 260
-27 260 -153 0 -81 -13 -105 -67 -127 -18 -7 -33 -19 -33 -26 0 -15 35 -54 48
-54 4 0 25 -31 46 -70 20 -38 42 -70 47 -70 5 0 9 -11 9 -25 0 -30 20 -33 44
-7 15 18 15 20 -3 36 -26 23 -35 69 -20 93 9 15 8 26 -5 51 -9 17 -19 51 -22
76 -5 37 -3 47 16 66 20 20 22 27 11 55 -6 17 -11 40 -11 51 0 24 -55 104 -91
133 -42 33 -159 52 -242 41 -38 -6 -80 -13 -93 -16 -16 -4 -25 0 -34 15 -12
23 -25 27 -35 11z m485 -455 c0 -8 -4 -15 -10 -15 -5 0 -10 7 -10 15 0 8 5 15
10 15 6 0 10 -7 10 -15z"/>
<path d="M2325 2694 c-12 -9 -39 -14 -70 -13 -35 1 -67 -6 -105 -24 -65 -30
-93 -58 -109 -109 -7 -20 -18 -39 -26 -42 -20 -7 -19 -60 0 -76 8 -7 15 -21
15 -32 0 -10 7 -33 16 -49 17 -34 13 -59 -10 -59 -11 0 -13 -8 -9 -34 5 -35
-12 -60 -23 -32 -9 23 -34 20 -34 -4 0 -11 7 -20 15 -20 8 0 22 -18 31 -40 11
-27 24 -42 40 -46 21 -5 24 -12 24 -54 0 -30 -5 -50 -12 -53 -7 -2 -38 5 -68
15 -42 15 -69 18 -115 13 -73 -8 -99 -23 -125 -75 -22 -43 -41 -53 -37 -19 1
13 -6 26 -18 33 -11 6 -24 17 -28 24 -4 6 -14 12 -22 12 -7 0 -15 6 -17 13 -3
6 -22 13 -44 14 -21 1 -48 3 -59 5 -16 2 -20 -3 -20 -27 l0 -30 62 -1 c35 0
66 -4 70 -8 5 -4 8 -47 8 -94 l0 -87 90 0 c69 0 89 3 87 13 -1 7 -6 39 -11 70
-4 31 -12 65 -16 74 -11 26 30 33 164 29 l34 -1 -6 -49 c-4 -34 -2 -55 8 -67
13 -18 15 -17 25 14 7 17 16 32 20 32 5 0 11 9 15 19 12 38 173 70 258 51 181
-41 237 -146 198 -370 -13 -77 -33 -107 -90 -136 -24 -12 -47 -27 -51 -34 -12
-20 -223 -16 -253 5 -12 8 -29 15 -39 15 -10 0 -26 18 -39 45 -32 63 -47 58
-51 -16 l-3 -61 -75 0 c-41 0 -81 1 -89 1 -12 1 -13 20 -8 111 5 81 3 111 -6
117 -16 10 -149 4 -161 -7 -5 -5 -4 -45 2 -95 16 -122 9 -132 -95 -130 l-78 2
-2 253 c-1 162 -5 256 -12 263 -8 8 -6 16 6 29 20 22 12 32 -21 24 -21 -5 -25
-13 -32 -63 -7 -55 -10 -64 -46 -104 -26 -28 -23 -58 7 -69 26 -10 26 -10 19
-102 -4 -51 -10 -97 -15 -102 -5 -6 -9 -17 -9 -25 1 -13 3 -12 15 3 13 18 15
18 21 2 4 -10 1 -28 -6 -40 -15 -30 -10 -60 12 -64 10 -2 31 -16 47 -31 65
-61 183 -44 229 32 17 29 24 33 51 29 21 -3 31 -10 31 -22 0 -9 18 -30 40 -45
32 -22 51 -28 94 -27 30 0 70 6 88 12 27 10 44 9 93 -5 43 -12 90 -17 165 -15
92 1 109 4 140 25 19 13 47 28 62 34 32 12 118 124 118 153 0 15 4 18 23 12
12 -3 30 -15 40 -25 10 -11 22 -19 27 -19 6 0 10 -6 10 -14 0 -20 67 -99 94
-111 13 -5 29 -15 37 -22 8 -6 43 -19 79 -28 74 -19 164 -14 249 15 51 17 54
17 114 -2 77 -24 346 -30 387 -8 41 21 80 62 80 85 0 11 6 27 12 33 10 10 10
17 0 32 -6 10 -9 26 -6 33 6 18 -50 67 -77 67 -16 0 -19 5 -14 20 8 24 -18 38
-39 21 -8 -7 -34 -11 -58 -9 l-43 3 -8 85 c-5 47 -10 110 -11 140 -2 30 -4 70
-4 88 -2 40 -37 79 -57 62 -9 -8 -11 -19 -6 -33 5 -12 5 -107 2 -212 -4 -104
-3 -198 1 -207 7 -14 13 -15 34 -8 14 6 74 10 134 10 102 0 109 -1 115 -21 4
-12 2 -26 -4 -32 -6 -6 -11 -26 -11 -43 0 -37 -25 -68 -48 -59 -9 3 -103 6
-210 6 l-194 1 7 36 c12 59 11 76 -6 80 -11 2 -27 -14 -45 -42 -16 -25 -35
-46 -43 -46 -8 0 -22 -6 -30 -14 -11 -10 -46 -15 -106 -17 -73 -2 -104 2 -162
21 -72 23 -73 24 -102 84 -36 75 -51 129 -51 181 0 71 39 168 80 203 13 11 13
14 -4 27 -29 22 -41 19 -86 -25 -35 -34 -40 -45 -40 -85 0 -53 -24 -64 -35
-16 -3 16 -13 35 -21 42 -8 6 -14 18 -14 25 0 8 -25 40 -56 71 -51 52 -54 59
-38 68 22 12 71 62 90 90 16 25 21 182 7 247 -14 68 -41 88 -117 88 -56 0 -63
2 -87 31 -47 57 -153 49 -134 -10 3 -12 18 -23 33 -27 15 -3 37 -10 50 -15 13
-5 31 -9 41 -9 10 0 24 -7 31 -15 7 -9 29 -15 54 -15 33 0 48 -6 70 -29 23
-24 28 -39 32 -102 5 -66 3 -78 -18 -108 -36 -54 -102 -82 -200 -88 -119 -6
-178 15 -235 85 -32 39 -43 62 -43 86 0 41 16 46 105 37 57 -6 61 -8 78 -44
21 -44 51 -59 99 -48 49 11 58 19 58 46 0 27 -28 50 -75 61 -16 3 -50 15 -75
24 -25 10 -57 21 -72 24 -62 14 -107 107 -87 180 13 48 38 72 88 86 22 6 43
15 46 20 3 6 44 10 90 10 67 0 93 -5 127 -22 57 -28 108 -77 108 -102 0 -35
15 -50 30 -31 11 14 11 25 2 63 -7 26 -20 52 -29 57 -9 6 -26 19 -37 31 -32
31 -74 56 -85 50 -5 -4 -24 3 -43 13 -29 18 -35 18 -53 5z m314 -1071 c1 -7
-8 -4 -20 8 -17 17 -18 23 -7 36 11 14 13 13 19 -8 4 -13 7 -30 8 -36z"/>
<path d="M2915 2548 c-44 -6 -105 -17 -135 -26 -47 -15 -55 -21 -58 -44 -2
-14 -10 -32 -18 -38 -8 -7 -14 -25 -14 -40 0 -15 -7 -33 -15 -40 -8 -7 -15
-23 -15 -35 0 -12 -7 -28 -15 -35 -22 -18 -18 -49 8 -74 25 -25 45 -49 105
-128 48 -63 85 -78 133 -54 19 9 31 10 38 3 7 -7 21 -5 44 7 19 9 53 16 74 16
44 0 63 14 63 46 0 12 7 36 15 53 8 17 22 45 30 62 8 17 15 39 15 49 0 9 7 23
15 30 23 19 18 38 -20 83 -19 23 -58 71 -88 107 -29 36 -60 65 -68 66 -8 1
-50 -3 -94 -8z m25 -60 c11 -12 20 -25 20 -30 0 -4 27 -8 60 -8 38 0 60 -4 60
-11 0 -7 8 -18 18 -25 16 -13 16 -15 0 -28 -23 -17 -23 -58 1 -97 11 -17 18
-37 16 -43 -2 -6 -6 -23 -9 -38 -5 -24 -12 -28 -39 -28 -36 0 -72 -30 -79 -65
-2 -12 -13 -21 -28 -23 -14 -2 -29 -7 -33 -12 -10 -9 -50 27 -60 53 -6 15 -13
17 -44 11 l-38 -7 28 30 c30 32 28 58 -4 68 -35 12 -70 -54 -36 -69 6 -3 1 -4
-12 -3 -35 3 -49 31 -28 55 18 20 23 72 7 72 -5 0 -16 13 -24 28 -14 27 -13
31 15 65 36 44 99 59 129 32 42 -38 94 9 55 49 -22 22 -42 20 -50 -4 -3 -11
-11 -20 -16 -20 -13 0 -11 44 3 58 19 19 65 14 88 -10z"/>
<path d="M2997 2413 c-15 -14 -6 -41 18 -57 29 -19 35 -20 35 -4 0 6 7 19 16
29 9 10 13 23 9 28 -7 12 -68 15 -78 4z"/>
<path d="M2747 2367 c-13 -20 -13 -25 3 -45 22 -26 48 -20 56 14 13 53 -30 75
-59 31z"/>
<path d="M2853 2323 l-26 -34 35 -36 c32 -32 37 -34 57 -22 17 12 25 12 42 0
19 -11 21 -11 16 3 -3 8 0 31 9 51 13 31 13 35 -1 35 -8 0 -19 9 -24 19 -8 13
-21 19 -46 19 -29 0 -41 -7 -62 -35z m105 -26 c4 -21 -34 -40 -64 -33 -32 9
-34 53 -1 65 25 10 60 -7 65 -32z"/>
<path d="M3027 2274 c-4 -4 -7 -20 -7 -36 0 -26 3 -29 28 -26 21 2 28 9 30 31
2 15 -1 27 -7 27 -5 0 -16 2 -23 5 -8 3 -17 2 -21 -1z"/>
<path d="M2905 2169 c-12 -19 4 -59 24 -59 19 0 55 53 43 64 -10 10 -61 6 -67
-5z"/>
<path d="M553 2499 c-6 -9 -8 -32 -4 -59 l6 -45 47 -3 c137 -9 147 102 10 116
-33 3 -51 0 -59 -9z"/>
<path d="M1932 2308 c-14 -14 -16 -58 -3 -58 7 0 31 51 31 66 0 8 -17 3 -28
-8z"/>
<path d="M1910 2080 c-12 -8 -12 -10 3 -16 20 -7 47 1 47 16 0 12 -30 13 -50
0z"/>
<path d="M3255 2080 c-36 -9 -34 -11 28 -15 88 -7 84 -35 -5 -35 -26 0 -50 -5
-53 -11 -4 -6 -26 -10 -49 -9 -91 4 -139 -26 -65 -41 19 -4 39 -15 44 -25 6
-9 17 -25 26 -34 8 -9 19 -24 22 -34 4 -10 15 -16 24 -14 18 4 20 19 7 71 -10
43 10 60 65 53 36 -5 51 -2 70 13 l24 19 -19 33 c-16 28 -27 34 -54 36 -19 0
-48 -2 -65 -7z"/>
<path d="M1440 2050 c0 -5 10 -10 23 -10 18 0 19 2 7 10 -19 13 -30 13 -30 0z"/>
<path d="M2770 1975 c7 -8 23 -15 35 -15 12 0 28 7 35 15 11 13 6 15 -35 15
-41 0 -46 -2 -35 -15z"/>
<path d="M3505 1947 c-4 -10 -5 -21 -1 -24 10 -10 18 4 13 24 -4 17 -4 17 -12
0z"/>
<path d="M1377 1904 c-8 -8 1 -24 14 -24 5 0 9 7 9 15 0 15 -12 20 -23 9z"/>
<path d="M538 1878 c-11 -9 -15 -23 -11 -45 5 -30 8 -32 62 -39 31 -3 81 -17
111 -30 l55 -23 18 21 c32 38 19 53 -52 56 -53 3 -64 6 -68 23 -6 22 -51 49
-81 49 -10 0 -25 -6 -34 -12z"/>
<path d="M969 1838 c-29 -22 -42 -195 -18 -239 15 -28 66 -51 98 -44 38 8 71
40 78 77 6 28 8 29 42 23 20 -3 54 -7 76 -8 34 -2 40 1 40 18 0 12 -11 25 -27
33 -35 16 -35 29 -3 44 14 6 25 20 25 31 0 16 -5 18 -32 13 -43 -9 -98 -7
-115 3 -8 4 -20 19 -26 32 -11 20 -21 24 -67 27 -34 2 -61 -2 -71 -10z m101
-77 c14 -28 13 -31 -14 -31 -28 0 -40 14 -32 35 8 21 33 18 46 -4z m86 -36
c18 -14 18 -14 -5 -15 -14 0 -35 -10 -48 -21 -20 -20 -27 -21 -65 -12 -35 9
-38 11 -15 12 33 1 69 18 80 37 10 18 28 18 53 -1z"/>
<path d="M2173 1828 c-22 -24 -27 -60 -24 -166 2 -73 30 -102 101 -102 82 0
110 43 110 169 0 49 -4 61 -29 89 -27 28 -36 32 -84 32 -43 0 -58 -5 -74 -22z
m127 -114 c0 -8 -9 -14 -20 -14 -11 0 -23 -7 -26 -15 -5 -12 -10 -13 -20 -4
-21 18 -17 28 19 43 35 15 47 12 47 -10z"/>
<path d="M2910 1835 c-33 -19 -38 -37 -39 -123 -1 -99 14 -126 81 -146 49 -14
54 -14 85 5 40 25 45 41 45 146 0 74 -3 88 -23 109 -18 20 -32 24 -73 23 -28
-1 -62 -7 -76 -14z m50 -119 c0 -8 -4 -18 -10 -21 -5 -3 -10 3 -10 14 0 12 5
21 10 21 6 0 10 -6 10 -14z"/>
</g>
</svg>
